<svg width="300" height="139" viewBox="0 0 300 139" fill="none" xmlns="http://www.w3.org/2000/svg">
<path d="M2.98691 90.9042V76.5042H0.628906V90.9042H2.98691Z" fill="black"/>
<path d="M36.884 90.9042V76.5042H34.814V83.8302H34.76L33.248 76.5042H30.8V90.9042H32.816V82.8222H32.87L34.742 90.9042H36.884Z" fill="black"/>
<path d="M70.7997 87.9522V79.5822C70.7997 77.5842 69.7917 76.5042 67.7757 76.5042H64.6977V90.9042H67.8477C69.8097 90.9042 70.7997 89.8062 70.7997 87.9522ZM68.4417 88.3842C68.4417 88.7622 68.1897 88.9602 67.7397 88.9602H67.0557V78.4662H67.8117C68.1897 78.4662 68.4417 78.7182 68.4417 79.1142V88.3842Z" fill="black"/>
<path d="M105.475 87.8262V76.5042H103.495V88.3842C103.495 88.9062 103.099 89.1402 102.721 89.1402C102.289 89.1402 101.875 88.9242 101.875 88.3842V76.5042H99.4989V87.8262C99.4989 90.1842 100.831 91.0842 102.577 91.0842C104.305 91.0842 105.475 90.1842 105.475 87.8262Z" fill="black"/>
<path d="M137.686 87.4842C137.686 86.0982 137.272 84.9102 136.534 83.8482L134.896 81.4722C134.374 80.7162 134.14 80.1582 134.14 79.4922C134.14 78.5742 134.374 78.2862 134.896 78.2862C135.346 78.2862 135.562 78.5922 135.562 79.2762V80.6802H137.56V79.2942C137.56 77.5482 136.84 76.3242 134.734 76.3242C132.664 76.3242 131.764 77.8002 131.764 79.5642C131.764 81.0042 132.304 82.0662 132.934 82.9842L134.554 85.3062C135.22 86.2602 135.31 86.8722 135.31 87.7002C135.31 88.8162 135.094 89.1402 134.626 89.1402C134.086 89.1402 133.852 88.7262 133.852 87.7722V86.7282H131.872V87.8262C131.872 90.1842 133.006 91.0842 134.68 91.0842C136.57 91.0842 137.686 89.9502 137.686 87.4842Z" fill="black"/>
<path d="M171.601 78.5382V76.5042H165.499V78.5202H167.371V90.9042H169.729V78.5382H171.601Z" fill="black"/>
<path d="M204.286 90.9042C204.07 90.2202 204.07 89.2482 204.07 87.4122C204.07 84.7842 203.422 84.0822 202.486 83.9382V83.9022C203.71 83.3982 204.052 82.3902 204.052 80.2122C204.052 77.6742 202.99 76.5042 201.496 76.5042H197.968V90.9042H200.326V85.1622H200.83C201.478 85.1622 201.712 85.7202 201.712 87.5202C201.712 89.1582 201.694 90.4002 201.856 90.9042H204.286ZM201.748 80.5902C201.748 82.3002 201.568 83.1822 200.848 83.1822H200.326V78.4482H200.884C201.37 78.4482 201.748 78.9882 201.748 80.5902Z" fill="black"/>
<path d="M234.101 90.9042V76.5042H231.743V90.9042H234.101Z" fill="black"/>
<path d="M266.9 90.9042V88.8882H264.272V84.2802H266.468V82.2642H264.272V78.5382H266.864V76.5042H261.914V90.9042H266.9Z" fill="black"/>
<path d="M299.826 87.4842C299.826 86.0982 299.412 84.9102 298.674 83.8482L297.036 81.4722C296.514 80.7162 296.28 80.1582 296.28 79.4922C296.28 78.5742 296.514 78.2862 297.036 78.2862C297.486 78.2862 297.702 78.5922 297.702 79.2762V80.6802H299.7V79.2942C299.7 77.5482 298.98 76.3242 296.874 76.3242C294.804 76.3242 293.904 77.8002 293.904 79.5642C293.904 81.0042 294.444 82.0662 295.074 82.9842L296.694 85.3062C297.36 86.2602 297.45 86.8722 297.45 87.7002C297.45 88.8162 297.234 89.1402 296.766 89.1402C296.226 89.1402 295.992 88.7262 295.992 87.7722V86.7282H294.012V87.8262C294.012 90.1842 295.146 91.0842 296.82 91.0842C298.71 91.0842 299.826 89.9502 299.826 87.4842Z" fill="black"/>
<path fill-rule="evenodd" clip-rule="evenodd" d="M2.85034 61.5939C4.76733 61.608 6.91406 61.3058 8.3374 59.905C10.1245 58.1298 11.0105 55.517 11.7148 53.1569L29.0737 0.824219H30.6414L49.2327 53.2494C50.1327 55.7956 50.8844 58.6162 52.988 60.4679C54.4329 61.6047 56.375 61.6788 58.1401 61.6437V63.1401H35.0737V61.6437C37.2114 61.6437 38.6865 61.3586 39.5273 60.8456C41.8085 59.3441 40.5373 56.2227 39.8123 54.2114L36.0569 43.7292H19.0403L15.1924 55.5012C14.5945 57.2861 14.2095 59.6439 16.1045 60.7958C17.0452 61.4086 18.7268 61.6437 21.2637 61.5939V63.0902H2.85034V61.5939ZM27.2422 18.5464H27.0784L20.1165 40.2589H34.9167L27.2422 18.5464Z" fill="black"/>
<path fill-rule="evenodd" clip-rule="evenodd" d="M157.596 60.9382C156.983 61.3586 155.907 61.5439 154.411 61.5439V62.6555H170.943V61.5297C169.7 61.551 168.247 61.545 167.259 60.6816C165.813 59.292 165.226 57.0542 164.608 55.2162L151.268 15.6888H150.142L137.786 55.2162C137.271 56.9885 136.681 58.9478 135.392 60.3254C134.394 61.3583 132.861 61.6155 131.48 61.5939V62.7554H144.591V61.6294C142.76 61.6793 141.542 61.4869 140.886 61.0166C139.485 60.0675 139.887 58.3134 140.201 56.9431L140.202 56.9406L142.967 48.0332H155.159L157.831 55.8717C158.136 56.8551 158.532 57.8774 158.537 58.9216C158.596 59.7118 158.24 60.476 157.596 60.9382ZM143.772 45.5249L148.76 29.1354H148.881L154.318 45.5249H143.772Z" fill="black"/>
<path d="M104.081 60.5177C102.888 61.603 101 61.5796 99.4846 61.5438V62.6697H116.587V61.5438C115.3 61.5548 113.564 61.5278 112.696 60.418C111.633 59.0928 111.645 57.0636 111.663 55.4512V23.9762C111.626 22.4 111.597 20.4412 112.561 19.1021C113.51 18.0092 115.14 17.8481 116.501 17.8835V16.7576H105.199L92.7791 50.7053H92.6365L80.1877 16.6721H68.323V17.798C69.7959 17.7611 71.7051 17.8594 72.7766 19.0165C73.8132 20.3489 73.8013 22.283 73.7673 23.8906V55.4014L73.7693 55.6023C73.7854 57.1943 73.8059 59.2421 72.6841 60.4678C71.5793 61.6047 69.7983 61.6301 68.3159 61.5938V62.7053H82.0476V61.5795C80.5283 61.616 78.6592 61.6414 77.4585 60.5604C76.2944 59.2502 76.3186 57.2064 76.3384 55.5448L76.3396 55.4512V25.3015H76.4751L90.3562 62.7196H91.2329L105.157 24.4536H105.299V55.4014C105.342 57.0789 105.288 59.2091 104.081 60.5177Z" fill="black"/>
<path d="M300 68.2992H0V70.3586H300V68.2992Z" fill="black"/>
<path d="M203.751 19.3159H198.642V55.4513C198.594 57.1589 198.651 59.212 199.846 60.5605C201.142 61.6493 203.127 61.6125 204.747 61.5825L204.905 61.5796V62.7054H185.665V61.5939L185.899 61.5981C187.483 61.6276 189.517 61.6655 190.76 60.5962C191.987 59.2987 192 57.1239 191.965 55.4513V19.3018H186.977C184.858 19.2535 182.381 19.5389 180.791 21.0831C179.199 22.6183 178.842 25.1133 178.853 27.2257H177.727V16.7649H212.986V27.1901H211.86C211.767 24.3397 211.112 22.2661 209.893 21.0974C208.675 19.9288 206.658 19.3159 203.751 19.3159Z" fill="black"/>
<path d="M295.725 30.9882H296.965L296.116 15.7958H294.898C294.836 16.5564 294.646 17.3009 294.335 17.9977C294.134 18.4061 293.714 18.6616 293.259 18.6533C292.719 18.6256 292.192 18.4822 291.713 18.2328C288.893 17.0383 286.051 15.8039 282.927 15.8457C277.216 15.7795 271.941 18.5991 268.404 23.0143C264.354 28.1127 262.579 34.6631 262.625 41.1141C262.555 44.4744 263.128 47.817 264.314 50.962C267.157 58.4836 274.294 63.8817 282.463 63.8599C289.589 63.8599 294.812 60.2471 298.14 53.0713L297.014 52.5084C294.601 57.4509 290.261 61.6471 284.451 61.4514C277.714 61.5503 272.965 56.8264 271.511 50.3849C270.843 47.3698 270.528 44.2875 270.57 41.1996C270.57 33.5535 271.625 27.7388 273.763 23.848C275.591 20.1125 279.455 17.8115 283.611 17.9834C286.779 17.8823 289.834 19.1677 291.976 21.5037C294.135 23.7982 295.397 26.9906 295.725 30.9241V30.9882Z" fill="black"/>
<path d="M245.858 17.9238C244.326 17.8921 242.34 17.8508 241.197 19.0095C240.026 20.3457 239.973 22.3398 240.029 24.0261V55.5012C239.964 57.2601 240.151 59.2891 241.34 60.6816C242.43 61.6737 244.181 61.6727 245.619 61.6719C245.744 61.6718 245.866 61.6716 245.986 61.6722V62.791H227.416V61.6437L227.464 61.644C229.046 61.6575 231.061 61.6748 232.247 60.4679C233.354 59.1379 233.424 57.1948 233.373 55.5439V24.0284C233.388 22.3562 233.406 20.322 232.197 19.0166C230.981 17.8615 229.014 17.9052 227.443 17.9398L227.416 17.9406V16.8147H245.986V17.9264L245.858 17.9238Z" fill="black"/>
<path d="M196.115 118.984L196.484 125.262H196.115C195.621 123.392 194.91 122.057 194.003 121.204C193.096 120.351 191.999 119.965 190.71 119.965C187.328 119.965 185.703 123.053 185.221 126.004C185.078 126.88 185.007 127.862 185.007 128.952C185.007 130.613 185.241 132.061 185.711 133.295C186.564 135.536 188.602 137.094 191.056 137.094C192.158 137.094 193.234 136.854 194.11 136.155C195.083 135.378 195.784 134.281 196.484 133.268L196.854 133.54C196.043 135.174 195.112 136.368 194.015 137.149C192.917 137.929 191.64 138.292 190.161 138.292C187.472 138.292 185.396 137.158 183.933 134.888C182.835 133.2 182.286 131.212 182.286 128.924C182.286 127.826 182.417 126.762 182.68 125.731C183.6 122.118 186.654 118.984 190.519 118.984C191.688 118.984 192.841 119.311 193.979 119.965C194.329 120.174 194.567 120.273 194.695 120.264C195.33 120.264 195.599 119.496 195.697 118.984H196.115Z" fill="black"/>
<path fill-rule="evenodd" clip-rule="evenodd" d="M75.9414 137.366V137.87H83.1718C84.6591 137.87 85.9697 137.639 87.1031 137.176C90.6496 135.727 92.2395 132.218 92.2395 128.543C92.2395 125.409 91.0282 121.826 88.0397 120.346C86.7828 119.719 84.9453 119.406 82.5275 119.406H75.9414V119.91C76.6647 119.91 77.4403 119.874 77.9338 120.509C78.1565 120.791 78.2678 121.512 78.2678 122.674V134.602C78.2678 135.655 78.1802 136.327 78.0055 136.618C77.5528 137.385 76.7226 137.366 75.9414 137.366ZM80.5587 136.536V120.836C82.2348 120.375 84.0071 120.242 85.6237 121.013C88.4909 122.381 89.5192 125.716 89.5192 128.679C89.5192 131.627 88.4734 134.947 85.6475 136.338C84.0261 137.137 82.2558 136.97 80.5587 136.536Z" fill="black"/>
<path d="M112.929 137.87V137.366C112.227 137.366 111.245 137.328 110.838 136.641C110.508 136.083 110.602 135.225 110.602 134.602V122.674C110.602 121.558 110.701 120.859 110.9 120.577C111.363 119.877 112.186 119.91 112.929 119.91V119.406H105.997V119.91C106.818 119.91 107.954 119.953 108.198 120.938C108.335 121.496 108.311 122.101 108.311 122.674V134.602C108.311 135.719 108.216 136.418 108.025 136.699C107.563 137.398 106.738 137.366 105.997 137.366V137.87H112.929Z" fill="black"/>
<path fill-rule="evenodd" clip-rule="evenodd" d="M142.256 137.87H137.937L132.46 129.238C131.896 129.262 131.33 129.278 130.766 129.238V134.602C130.766 135.764 130.877 136.486 131.1 136.767C131.587 137.411 132.37 137.366 133.093 137.366V137.87H126.161V137.366C126.952 137.366 127.777 137.378 128.236 136.604C128.404 136.323 128.487 135.655 128.487 134.602V122.674C128.487 121.512 128.376 120.791 128.153 120.509C127.66 119.874 126.884 119.91 126.161 119.91V119.406H132.055C134.73 119.406 137.591 119.807 138.551 122.674C138.706 123.137 138.784 123.632 138.784 124.158C138.784 124.73 138.704 125.264 138.545 125.759C138.002 127.447 136.46 128.46 134.799 128.883L138.14 134.18C138.911 135.406 139.567 136.214 140.108 136.604C140.665 137.004 141.381 137.258 142.256 137.366V137.87ZM130.766 128.38C132.243 128.38 133.791 128.297 134.93 127.236C135.734 126.487 136.099 125.418 136.099 124.336C136.099 123.328 135.818 122.296 135.139 121.531C134.504 120.816 133.589 120.441 132.639 120.441C132.008 120.441 131.379 120.56 130.766 120.7V128.38Z" fill="black"/>
<path d="M159.366 127.713V120.414H163.804C164.6 120.414 165.16 120.482 165.487 120.618C165.686 120.718 165.857 120.829 166 120.952C166.143 121.074 166.27 121.24 166.381 121.449C166.705 122.055 166.822 122.779 166.942 123.451H167.229V119.406H154.76V119.91C155.456 119.91 156.286 119.848 156.765 120.455C156.972 120.736 157.075 121.458 157.075 122.62V134.616C157.075 135.524 157.027 136.118 156.932 136.4C156.884 136.563 156.801 136.706 156.681 136.829C156.562 136.951 156.429 137.053 156.282 137.135C155.805 137.399 155.285 137.366 154.76 137.366V137.87H167.229L168.625 133.241H168.147C167.596 134.479 166.826 136.198 165.445 136.652C164.808 136.861 164.109 136.863 163.446 136.863C161.75 136.823 159.813 136.959 159.581 136.522C159.366 136.118 159.366 135.331 159.366 134.793V128.707H162.921C163.521 128.707 164.19 128.762 164.683 129.142C165.364 129.667 165.366 130.674 165.463 131.457H165.904V125.03H165.463C165.428 125.708 165.39 126.516 164.938 127.066C164.461 127.645 163.618 127.713 162.921 127.713H159.366Z" fill="black"/>
<path d="M224.058 123.736V119.406H210.659V123.736H211.112C211.192 123.074 211.311 122.534 211.47 122.116C211.629 121.699 211.836 121.376 212.091 121.149C212.345 120.922 212.656 120.768 213.021 120.686C213.387 120.605 213.817 120.564 214.31 120.564H216.255V134.671C216.255 135.714 216.167 136.377 215.992 136.658C215.548 137.391 214.717 137.366 213.964 137.366V137.87H220.824V137.366C220.127 137.366 219.342 137.409 218.868 136.795C218.653 136.513 218.546 135.805 218.546 134.671V120.564H220.824C221.278 120.564 221.676 120.621 222.018 120.734C222.359 120.848 222.65 121.029 222.889 121.279C223.127 121.528 223.32 121.855 223.467 122.259C223.614 122.663 223.72 123.156 223.783 123.736H224.058Z" fill="black"/>
</svg>
