<svg width="501" height="131" viewBox="0 0 501 131" fill="none" xmlns="http://www.w3.org/2000/svg">
<path d="M76.1772 89.6969C75.9049 89.6969 75.6871 89.6969 75.4694 89.6969C70.0247 89.6969 64.5257 89.6969 59.0811 89.6969C58.5366 89.6969 58.3188 89.5341 58.1555 89.0457C55.4332 81.069 52.7109 73.1466 50.043 65.1699C49.8252 64.573 49.553 64.4102 48.9541 64.4102C41.4405 64.4102 33.9814 64.4102 26.4678 64.4102C25.8689 64.4102 25.6511 64.573 25.4877 65.1157C22.8743 73.0381 20.2609 81.0147 17.6475 88.9372C17.4297 89.5341 17.1575 89.6969 16.5586 89.6969C11.2773 89.6969 5.996 89.6969 0.769167 89.6969C-0.0475265 89.6969 -0.0475265 89.6968 0.224705 88.9372C6.86714 69.5652 13.5096 50.1933 20.152 30.8214C23.2554 21.7594 26.3589 12.6975 29.4623 3.63553C29.6257 3.14716 29.8434 2.98438 30.3335 2.98438C35.5603 2.98438 40.7871 2.98438 46.014 2.98438C46.504 2.98438 46.7218 3.14716 46.8851 3.63553C56.631 32.1237 66.3224 60.5576 76.0683 88.9914C76.0138 89.2627 76.0683 89.4255 76.1772 89.6969ZM37.7381 27.1857C37.5748 27.7826 37.4115 28.2167 37.3026 28.6508C34.9614 35.5423 32.6202 42.4337 30.279 49.3793C30.0612 49.9762 30.1701 50.0848 30.769 50.0848C35.5058 50.0848 40.1882 50.0848 44.925 50.0848C45.524 50.0848 45.5784 49.922 45.4151 49.3793C43.7272 44.6042 42.0938 39.829 40.4605 35.0539C39.5349 32.4493 38.6637 29.8989 37.7381 27.1857Z" fill="black"/>
<path d="M273.599 47.0461C273.599 33.1547 273.599 19.2091 273.599 5.31775C273.599 4.66659 273.762 4.44954 274.416 4.34101C282.256 2.93017 290.151 2.33328 298.154 2.49607C303.49 2.60459 308.771 3.25575 313.726 5.26349C322.437 8.73633 327.61 15.1394 329.134 24.3098C330.114 30.333 329.515 36.1935 327.011 41.8368C324.724 46.9376 320.858 50.6817 316.013 53.3949C311.439 55.9452 306.539 57.3018 301.367 57.8987C297.828 58.2786 294.343 58.3328 290.804 58.0615C290.26 58.0072 290.314 58.3328 290.314 58.6584C290.314 62.4568 290.314 66.2552 290.314 70.0537C290.314 76.3482 290.314 82.697 290.314 88.9915C290.314 89.5341 290.205 89.6969 289.606 89.6969C284.488 89.6426 279.425 89.6969 274.307 89.6969C273.708 89.6969 273.545 89.5341 273.545 88.9372C273.599 74.9916 273.599 60.9917 273.599 47.0461ZM290.314 30.333C290.314 34.457 290.314 38.6353 290.314 42.7593C290.314 43.1934 290.423 43.3562 290.859 43.4105C294.234 43.736 297.555 43.7903 300.877 43.1934C303.762 42.705 306.485 41.674 308.771 39.7206C313.617 35.6508 313.563 27.6199 311.548 23.6044C309.915 20.4572 307.247 18.7207 303.926 17.7983C299.57 16.6045 295.16 16.8758 290.75 17.2014C290.26 17.2556 290.314 17.527 290.314 17.8525C290.314 22.0308 290.314 26.1548 290.314 30.333Z" fill="black"/>
<path d="M203.364 58.1161C203.418 51.6045 204.67 45.4185 207.991 39.7209C212.837 31.3643 220.133 26.5349 229.661 25.0156C236.14 23.9846 242.456 24.5815 248.445 27.2404C256.231 30.7132 261.349 36.6279 264.234 44.5503C266.249 50.1394 266.684 55.9455 266.086 61.8602C265.541 67.2323 264.017 72.2787 261.131 76.8368C256.666 83.7825 250.351 88.1236 242.347 90.0228C233.581 92.0848 225.142 91.1623 217.411 86.2786C211.694 82.6973 207.883 77.488 205.596 71.1935C204.017 66.9609 203.364 62.5656 203.364 58.1161ZM220.405 58.2246C220.46 59.7982 220.569 61.1548 220.786 62.4571C221.44 66.2013 222.746 69.5656 225.305 72.4958C228.844 76.5655 234.289 77.9764 239.189 76.0229C242.565 74.7206 244.96 72.2787 246.539 69.1315C250.187 61.7517 250.078 54.2634 246.866 46.8293C245.668 44.0077 243.817 41.6743 241.04 40.155C236.249 37.4961 227.973 37.8759 223.781 44.9844C221.276 49.1084 220.46 53.6665 220.405 58.2246Z" fill="black"/>
<path d="M381.457 25.7208C381.675 25.7208 381.893 25.7208 382.11 25.7208C387.773 25.7208 393.381 25.7208 399.043 25.7208C399.588 25.7208 399.805 25.8836 399.969 26.3719C404.542 38.8524 409.116 51.333 413.744 63.7592C413.798 63.922 413.852 64.0848 414.016 64.3561C414.234 63.6507 414.451 63.0538 414.669 62.4569C418.753 50.4647 422.836 38.4726 426.865 26.4262C427.083 25.8836 427.301 25.6665 427.9 25.6665C433.453 25.7208 438.952 25.6665 444.506 25.6665C445.05 25.6665 445.105 25.775 444.941 26.2634C437.918 44.3873 431.166 62.5654 423.979 80.635C421.584 86.6582 418.916 92.5729 415.486 98.1078C413.199 101.906 410.531 105.433 407.156 108.309C403.181 111.674 398.771 114.278 393.707 115.635C392.564 115.906 391.366 116.069 390.168 116.34C389.678 116.449 389.678 116.069 389.624 115.852C388.481 112.108 387.337 108.363 386.248 104.674C386.03 103.968 385.867 103.317 385.595 102.612C385.486 102.232 385.54 102.069 385.976 101.906C387.609 101.418 389.243 100.929 390.822 100.17C396.702 97.4566 400.894 93.007 403.889 87.3637C404.27 86.7125 404.542 86.0071 404.869 85.3017C405.087 84.8676 405.087 84.4335 404.869 83.9994C401.929 76.7281 398.989 69.5111 396.103 62.2398C391.312 50.302 386.52 38.3098 381.729 26.3719C381.566 26.2091 381.403 25.9921 381.457 25.7208Z" fill="black"/>
<path d="M380.749 64.8445C380.804 68.6429 380.695 73.2011 380.858 77.7049C381.022 81.3948 381.348 85.0304 382.002 88.6118C382.165 89.6428 382.165 89.6428 381.13 89.6428C376.394 89.6428 371.657 89.6428 366.974 89.6428C366.376 89.6428 366.212 89.4257 366.158 88.8831C366.103 88.0149 365.94 87.2009 365.885 86.387C365.831 85.8444 365.668 85.8986 365.341 86.1699C362.401 88.2862 359.189 89.697 355.65 90.4025C349.769 91.542 344.053 91.1622 338.771 88.0692C333.109 84.7591 330.06 79.7126 329.407 73.2553C328.862 67.9375 330.005 62.9453 333.218 58.55C335.94 54.8601 339.588 52.3097 343.78 50.5191C348.299 48.5656 353.036 47.6431 357.936 47.1005C359.788 46.8834 361.693 46.7749 363.544 46.7206C363.925 46.7206 363.98 46.6121 363.925 46.2323C363.599 41.8912 360.768 38.961 356.412 38.6354C350.314 38.1471 344.651 39.3409 339.588 42.9222C338.989 43.3563 338.281 43.7362 337.682 44.2245C337.247 44.5501 337.138 44.4416 336.975 44.0075C335.777 40.4261 334.524 36.8448 333.327 33.2091C333.109 32.558 332.564 31.8525 332.782 31.2556C333 30.7673 333.871 30.496 334.416 30.1704C339.261 27.1317 344.597 25.5038 350.205 24.7983C354.778 24.2014 359.297 24.2557 363.762 25.3952C372.365 27.62 377.483 33.2091 379.66 41.6742C380.477 44.8214 380.749 48.023 380.749 51.2787C380.749 55.6198 380.749 59.8523 380.749 64.8445ZM364.307 64.5732C364.307 63.2166 364.252 62.0228 364.307 60.8833C364.307 60.3407 364.143 60.2322 363.599 60.2322C362.238 60.2864 360.876 60.395 359.515 60.5035C356.521 60.8291 353.635 61.3717 350.913 62.7283C348.68 63.8135 346.938 65.3329 346.339 67.829C346.013 69.0228 346.013 70.2166 346.176 71.4646C346.503 74.4491 348.245 76.4026 351.239 76.8367C354.506 77.3251 357.501 76.6196 360.169 74.6662C362.292 73.0925 363.817 71.0305 364.252 68.3174C364.47 66.9608 364.252 65.6585 364.307 64.5732Z" fill="black"/>
<path d="M98.1191 91.0537C91.0956 90.9995 84.4531 89.3716 78.4641 85.5732C78.1374 85.3561 78.0829 85.1933 78.1918 84.8677C79.6074 80.5267 80.9686 76.1856 82.3842 71.7903C82.5475 71.2477 82.7653 71.4105 83.0375 71.5733C85.2154 72.8213 87.3388 74.1779 89.68 75.0461C93.0012 76.2942 96.4313 77.1624 100.025 76.7825C101.331 76.674 102.638 76.3484 103.836 75.7515C107.048 74.1236 106.885 69.457 104.979 67.7206C103.618 66.4725 101.985 65.6586 100.297 64.8989C97.9558 63.8679 95.5602 63.1082 93.2734 61.9687C90.0611 60.3951 87.121 58.4959 84.6709 55.837C80.2608 50.9533 79.2263 45.3099 81.023 39.1782C82.9287 32.6123 87.4477 28.5426 93.709 26.155C98.1736 24.4729 102.856 24.2016 107.538 24.7442C110.914 25.124 114.181 25.9922 117.284 27.5116C118.536 28.1085 119.68 28.9224 120.878 29.6821C121.15 29.8449 121.204 30.0077 121.15 30.3333C119.734 34.6201 118.319 38.9611 116.903 43.2479C116.74 43.682 116.631 43.6278 116.304 43.4107C114.562 42.3254 112.874 41.1317 110.968 40.2634C107.756 38.8526 104.489 38.1472 101.005 38.7441C100.243 38.8526 99.5347 39.1782 98.8814 39.5038C96.4313 40.8603 95.8868 44.713 98.3914 46.558C99.9703 47.6975 101.658 48.5114 103.4 49.2711C105.905 50.3564 108.573 51.2789 111.023 52.5269C114.126 54.1548 116.903 56.1625 119.081 58.93C122.021 62.7284 123.11 67.0694 122.838 71.7903C122.511 76.7825 120.605 81.0151 117.012 84.4879C114.017 87.3096 110.424 88.9917 106.504 89.9685C103.673 90.7282 100.896 91.0537 98.1191 91.0537Z" fill="black"/>
<path d="M148.972 10.7984C148.972 11.0697 148.972 11.341 148.972 11.6124C148.972 16.0619 148.972 20.5115 148.972 24.9611C148.972 25.558 149.081 25.7208 149.734 25.7208C154.253 25.6665 158.772 25.7208 163.346 25.6665C163.89 25.6665 164.053 25.775 164.053 26.3719C164.053 30.6587 164.053 34.9455 164.053 39.178C164.053 39.7206 163.945 39.8834 163.346 39.8834C158.772 39.8292 154.199 39.8834 149.625 39.8834C149.135 39.8834 148.972 39.992 148.972 40.5346C148.972 49.9764 148.972 59.4182 149.026 68.8599C149.026 70.3251 149.19 71.7902 149.625 73.1467C150.279 75.1545 151.313 75.8599 153.436 75.9684C156.322 76.0769 159.099 75.4258 161.821 74.5576C162.747 74.232 162.801 74.2863 162.856 75.2087C163.128 79.4955 163.346 83.8366 163.618 88.1233C163.618 88.3947 163.618 88.5575 163.291 88.666C158.282 90.5652 153.11 91.4334 147.72 90.6737C140.097 89.5885 135.36 85.2474 133.455 77.7591C132.747 74.9917 132.42 72.17 132.42 69.294C132.42 59.7437 132.42 50.1934 132.42 40.6431C132.42 39.9377 132.202 39.8292 131.603 39.8292C129.099 39.8834 126.54 39.8292 124.035 39.8292C123.545 39.8292 123.437 39.6664 123.437 39.2323C123.437 34.8912 123.437 30.5502 123.437 26.2091C123.437 25.6665 123.6 25.558 124.09 25.558C126.649 25.558 129.208 25.558 131.712 25.558C132.311 25.558 132.42 25.3952 132.42 24.8526C132.366 21.9766 132.42 19.1007 132.42 16.1705C132.42 15.8449 132.42 15.5736 132.856 15.465C138.083 13.8914 143.364 12.3178 148.591 10.7441C148.645 10.8527 148.754 10.8527 148.972 10.7984Z" fill="black"/>
<path d="M184.689 30.3873C186.213 28.8679 187.792 27.6741 189.48 26.7516C193.346 24.6896 197.429 24.0385 201.73 24.7439C202.438 24.8524 203.091 24.9609 203.799 25.0152C204.289 25.0695 204.398 25.2323 204.398 25.7206C204.398 28.5966 204.398 31.4725 204.398 34.2942C204.398 36.4647 204.398 38.6353 204.398 40.8058C204.398 41.8368 204.453 41.674 203.581 41.4569C201.458 40.9686 199.28 40.5345 197.048 40.6973C193.944 40.9143 191.44 42.2166 189.534 44.6585C187.465 47.3174 186.54 50.3561 186.376 53.6661C186.213 56.4878 186.322 59.3638 186.322 62.1854C186.322 71.0846 186.322 79.9838 186.322 88.8829C186.322 89.5341 186.213 89.7511 185.505 89.6969C180.387 89.6426 175.324 89.6426 170.206 89.6969C169.607 89.6969 169.444 89.5341 169.444 88.9372C169.444 73.4722 169.444 58.0615 169.389 42.5965C169.389 37.1702 169.117 31.7438 168.736 26.3175C168.681 25.8292 168.79 25.6664 169.28 25.6664C174.072 25.6664 178.917 25.6664 183.709 25.6664C184.199 25.6664 184.308 25.8292 184.362 26.2633C184.58 27.6198 184.634 28.9222 184.689 30.3873Z" fill="black"/>
<path d="M58.9177 29.1393C58.0465 26.6432 57.2298 24.2014 56.3587 21.7053C55.4876 19.2091 54.6709 16.713 53.7997 14.2712C53.5819 13.6743 53.7453 13.4573 54.2353 13.1317C60.7688 8.95342 67.8468 5.96894 75.2515 3.85268C82.5473 1.79068 90.0065 0.651158 97.52 0.162789C103.89 -0.162789 110.206 0 116.522 0.651158C125.832 1.62789 134.816 3.90695 143.473 7.43405C144.344 7.75963 145.215 8.08521 146.086 8.46505C145.923 8.6821 145.705 8.6821 145.487 8.73636C141.676 9.87589 137.81 11.0697 133.999 12.2092C133.672 12.3177 133.4 12.3177 133.073 12.2092C123.763 9.65884 114.289 8.79063 104.707 9.38752C96.7033 9.87589 88.9175 11.4495 81.4039 14.2712C73.0192 17.4185 65.5601 22.0308 59.4621 28.6509C59.3532 28.868 59.2443 29.085 58.9177 29.1393Z" fill="#D80000"/>
</svg>
