<svg width="300" height="95" viewBox="0 0 300 95" fill="none" xmlns="http://www.w3.org/2000/svg">
<path d="M30.3398 3.2035L55.9214 27.5952L32.7209 56.1506L23.2021 54.9608C17.6491 48.2183 5.82914 34.2576 2.97353 32.3538C0.117915 30.4501 1.38708 26.8012 2.37861 25.2148C8.72442 18.6709 22.1299 5.10724 24.9856 3.2035C27.8412 1.29976 29.7449 2.41027 30.3398 3.2035Z" fill="black"/>
<path fill-rule="evenodd" clip-rule="evenodd" d="M40.159 11.3557L31.1968 2.26032C29.2015 0.409294 25.8835 0.282785 23.9148 2.26032L1.42945 24.8788C-0.539213 26.8586 -0.412703 30.1967 1.42945 32.203L10.871 41.6202C7.11792 47.7548 4.15051 54.5708 4.15051 61.9016C4.15051 75.518 15.037 87.4165 28.7954 87.4165C37.4246 87.4165 45.7321 83.0154 50.5616 75.8265C49.0879 86.6353 39.1802 93.2115 28.7954 93.2115V94.8206H76.4893V93.2115C66.1067 93.2115 56.1502 86.6686 54.7231 75.8265C59.3995 83.0775 67.96 87.4165 76.4893 87.4165C90.2234 87.4165 101.136 75.5069 101.136 61.9016C101.136 34.5734 68.8988 12.9426 52.6435 2.50224C48.3977 5.34981 44.1896 8.19738 40.159 11.3557ZM3.18948 26.5678L25.5949 4.03145C26.0654 3.55871 26.6825 3.29459 27.315 3.24132C28.1074 3.17474 28.9263 3.43664 29.5167 4.03145L51.9222 26.5678C52.9808 27.6332 52.9875 29.442 51.9222 30.5118L29.5167 53.0482C28.3826 54.0248 26.698 54.1579 25.5949 53.0482L3.18948 30.5118C2.64127 29.9614 2.37716 29.2134 2.39491 28.4721C2.41045 27.7752 2.67678 27.085 3.18948 26.5678Z" fill="url(#paint0_linear)"/>
<path fill-rule="evenodd" clip-rule="evenodd" d="M294.276 23.8668V19.5854H295.75C296.76 19.6365 297.603 19.8229 297.603 20.7573C297.605 21.0214 297.514 21.2589 297.366 21.4542C297.137 21.7516 296.768 21.9469 296.38 21.9625C296.837 22.14 297.141 22.6239 297.381 23.0256L297.903 23.8645H297.066C296.737 23.2786 296.451 22.6572 295.958 22.1888C295.794 22.0779 295.599 22.0246 295.401 22.0379H294.982V23.8645L294.276 23.8668ZM294.966 21.4564H295.803C296.056 21.4764 296.475 21.4143 296.702 21.1923C296.804 21.0947 296.868 20.9659 296.862 20.7995C296.873 20.2313 296.245 20.1536 295.765 20.1625H294.98L294.966 21.4564Z" fill="url(#paint1_linear)"/>
<path fill-rule="evenodd" clip-rule="evenodd" d="M297.978 18.2027C299.237 18.873 299.993 20.2624 300 21.6739C299.998 22.3442 299.822 23.0123 299.503 23.6004C299.157 24.2352 298.646 24.7745 298.005 25.123C296.777 25.8265 295.268 25.8265 294.041 25.123C292.809 24.4483 292.045 23.07 292.045 21.6739C292.048 20.2601 292.813 18.8774 294.067 18.2027C295.279 17.528 296.768 17.5258 297.978 18.2027ZM294.394 18.7687C294.165 18.8885 293.961 19.0328 293.779 19.1948C293.069 19.8296 292.725 20.7529 292.733 21.6739C292.738 22.1267 292.829 22.5795 293.002 22.999C293.266 23.6315 293.723 24.1841 294.367 24.537C295.388 25.123 296.644 25.123 297.665 24.537C298.693 23.9755 299.328 22.8258 299.33 21.6606C299.328 20.4799 298.688 19.3102 297.627 18.7598C296.622 18.2182 295.395 18.2205 294.394 18.7687Z" fill="url(#paint2_linear)"/>
<path fill-rule="evenodd" clip-rule="evenodd" d="M107.386 22.8103H123.551C126.868 22.8103 130.16 23.1873 131.869 26.4302C132.528 27.6243 132.857 28.9005 132.857 30.2632C132.857 32.5902 131.651 35.1886 129.674 36.5066C129.364 36.7152 129.037 36.8905 128.698 37.037C131.47 38.2866 132.857 40.4994 132.857 43.6799C132.857 44.3058 132.806 44.8961 132.706 45.451C132.434 46.9633 131.724 48.4178 130.564 49.4438C129.629 50.2637 128.485 50.7284 127.268 50.9419C126.219 51.1262 124.865 51.2194 123.209 51.2194H107.386V22.8103ZM121.751 34.4802C122.827 34.4802 123.906 34.4771 124.796 33.7988C125.64 33.1375 126.125 32.0546 126.125 30.989C126.125 29.8541 125.709 29.014 124.88 28.4744C123.964 27.9149 122.927 27.8795 121.88 27.8795H113.474V34.4802H121.751ZM124.838 45.4688C125.68 44.8141 126.168 43.7181 126.168 42.6589C126.168 41.5226 125.752 40.6858 124.925 40.1443C123.997 39.579 122.943 39.5495 121.88 39.5495H113.474V46.1501H121.751C122.836 46.1501 123.936 46.1598 124.838 45.4688Z" fill="url(#paint3_linear)"/>
<path d="M158.807 27.8795H150.875C150.346 27.8795 149.856 27.8906 149.403 27.9128C147.383 28.0065 145.33 28.3192 143.972 29.9658C142.917 31.2769 142.873 32.9561 142.727 34.5668H158.807V39.6338H142.727C142.842 40.8545 143.071 41.8777 143.413 42.7011C144.1 44.3462 145.397 45.3529 147.401 45.8106C148.431 46.0369 149.674 46.1501 151.132 46.1501H158.807V51.2194H150.875C149.359 51.2194 148.016 51.1617 146.844 51.0485C144.121 50.7789 141.557 50.0614 139.597 48.0256C138.368 46.7472 137.425 45.158 136.768 43.2537C136.14 41.3517 135.824 39.2077 135.824 36.824C135.824 31.7414 137.44 27.8352 140.669 25.1097C142.217 23.8396 143.948 23.1653 145.943 22.939C146.686 22.8525 147.545 22.8103 148.515 22.8103H158.807V27.8795Z" fill="url(#paint4_linear)"/>
<path d="M169.411 38.7394V22.8103H163.321V38.7394C163.321 40.8648 163.282 43.244 164.009 45.3001C164.467 46.6628 165.21 47.8125 166.238 48.7491C168.419 50.6788 171.153 51.0816 173.957 51.2194H182.917V46.1501H177.086C174.991 46.1423 172.508 46.4164 170.825 44.9161C169.11 43.3748 169.505 40.8695 169.411 38.7394Z" fill="url(#paint5_linear)"/>
<path fill-rule="evenodd" clip-rule="evenodd" d="M196.538 22.8103H203.527L215.363 51.2194H208.245L205.5 44.6165H194.609L191.866 51.2194H184.704L196.538 22.8103ZM195.981 39.5495H204.128L200.056 29.624L195.981 39.5495Z" fill="url(#paint6_linear)"/>
<path d="M212.342 22.8103V27.8795H221.476V51.2194H227.564V27.8795H236.996V22.8103H212.342Z" fill="url(#paint7_linear)"/>
<path fill-rule="evenodd" clip-rule="evenodd" d="M246.214 51.2194H240.126V22.8103H254.104C256.96 22.8103 260.262 22.7961 262.68 24.4705C264.761 25.8872 265.801 28.2812 265.851 30.7315C265.939 35.0261 264.038 37.7894 260.407 39.039C262.094 39.4918 263.35 40.3729 264.18 41.6779C265.008 42.9563 265.472 44.5376 265.594 46.9181C265.625 50.367 266.282 51.2194 266.282 51.2194H259.464C258.766 49.3281 258.99 47.1618 258.538 45.2091C258.254 43.9794 257.79 42.7334 256.805 41.891C255.321 40.5522 252.977 40.4439 251.103 40.4439H246.214V51.2194ZM258.092 34.4802C258.778 33.8565 259.12 32.8489 259.12 31.4573C259.12 29.6951 258.421 28.5742 257.02 28.0926C256.507 27.9532 255.75 27.8795 254.747 27.8795H246.214V35.3747H254.747C256.318 35.3747 257.431 35.0772 258.092 34.4802Z" fill="url(#paint8_linear)"/>
<path fill-rule="evenodd" clip-rule="evenodd" d="M286.856 22.8103H279.867L268.033 51.2194H275.193L277.936 44.6165H288.829L291.573 51.2194H298.691L286.856 22.8103ZM283.383 29.624L287.456 39.5495H279.31L283.383 29.624Z" fill="url(#paint9_linear)"/>
<path d="M149.749 69.8651V86.7307H136.972L136.255 86.7263C134.401 86.7028 132.505 86.6125 130.744 85.9761C129.819 85.6386 128.942 85.1437 128.183 84.5157C126.725 83.3793 125.61 81.8035 124.838 79.7883C124.066 77.7743 123.679 75.3873 123.679 72.6327C123.679 69.9072 124.052 67.5368 124.796 65.5193C125.566 63.5041 126.682 61.9127 128.141 60.7497C130.198 59.1317 133.228 58.3216 137.229 58.3216H149.749V63.3909H137.96C135.243 63.3909 133.299 64.0723 132.127 65.435C130.955 66.7689 130.369 68.9839 130.369 72.0779C130.369 73.8667 130.54 75.4581 130.884 76.8497C131.255 78.2413 131.769 79.2778 132.426 79.9592C133.543 81.0933 135.458 81.6615 138.173 81.6615H143.661V74.9321H135.687V69.8651H149.749Z" fill="url(#paint10_linear)"/>
<path fill-rule="evenodd" clip-rule="evenodd" d="M171.118 58.3216H164.127L152.293 86.7307H159.455L162.198 80.1278H173.089L175.835 86.7307H182.952L171.118 58.3216ZM167.645 65.1354L171.717 75.0608H163.57L167.645 65.1354Z" fill="url(#paint11_linear)"/>
<path d="M201.975 80.5118L209.479 58.3216H218.355V86.7307H212.567V65.3928L205.063 86.7307H198.802L191.726 65.3928V86.7307H185.938V58.3216H194.858L201.975 80.5118Z" fill="url(#paint12_linear)"/>
<path d="M237.678 63.3909H245.61V58.3216H235.318C233.754 58.3371 232.21 58.4234 230.689 58.8321C229.504 59.1967 228.425 59.8326 227.473 60.621C224.931 62.765 223.389 65.6414 222.847 69.2458C222.701 70.2224 222.627 71.2522 222.627 72.3353C222.627 74.719 222.943 76.863 223.571 78.7651C224.228 80.6694 225.171 82.2585 226.401 83.5369C228.36 85.5728 230.924 86.2902 233.647 86.5598C234.819 86.673 236.162 86.7307 237.678 86.7307H245.61V81.6615H237.935C236.477 81.6615 235.234 81.5483 234.204 81.3219C232.2 80.8642 230.903 79.8575 230.216 78.2124C229.874 77.389 229.645 76.3658 229.53 75.1451H245.61V70.0781H229.53C229.66 68.4727 229.724 66.783 230.775 65.4772C231.088 65.0799 231.432 64.7536 231.803 64.4984C233.066 63.536 234.895 63.4791 236.419 63.4131C236.812 63.3975 237.231 63.3909 237.678 63.3909Z" fill="url(#paint13_linear)"/>
<path d="M250.34 81.6615H263.375C265.777 81.6615 269.316 81.4068 269.021 78.0815C268.731 75.5683 266.31 74.8477 264.105 74.8477H258.829C257.113 74.8477 255.671 74.7057 254.499 74.4216C253.361 74.1107 252.413 73.6281 251.669 72.9745C250.812 72.2354 250.14 71.3255 249.654 70.2468C249.197 69.1393 248.968 67.9763 248.968 66.7556C248.968 65.9854 249.046 65.2508 249.199 64.5561C249.414 63.584 249.78 62.6829 250.297 61.8572C251.212 60.4079 252.426 59.4292 253.942 58.9187C255.872 58.2119 258.056 58.3216 260.074 58.3216H274.223V63.3909H261.446C260.218 63.3909 258.838 63.3408 257.628 63.6461C257.029 63.7882 256.556 64.1278 256.215 64.6671C255.868 65.1804 255.7 65.8039 255.7 66.5425C255.7 67.7021 256.214 68.82 257.329 69.3102C258.443 69.8298 259.732 69.7785 260.931 69.7785H265.518C267.605 69.7785 269.278 69.9627 270.534 70.3334C271.793 70.6729 272.836 71.27 273.666 72.1222C274.323 72.7748 274.838 73.6692 275.209 74.8056C275.355 75.2184 275.475 75.6356 275.568 76.0596C275.73 76.8031 275.81 77.5621 275.81 78.3389C275.81 78.9915 275.75 79.624 275.63 80.2344C275.471 81.06 275.202 81.8501 274.822 82.6003C274.166 83.9053 273.28 84.8997 272.166 85.581C271.071 86.3013 269.714 86.4722 268.439 86.602C267.197 86.7272 265.952 86.724 264.704 86.7307H250.34V81.6615Z" fill="url(#paint14_linear)"/>
<defs>
<linearGradient id="paint0_linear" x1="50.5682" y1="0.824219" x2="50.5682" y2="94.8215" gradientUnits="userSpaceOnUse">
<stop stop-color="#025BFF"/>
<stop offset="1" stop-color="#028BFF"/>
</linearGradient>
<linearGradient id="paint1_linear" x1="50.5682" y1="0.824219" x2="50.5682" y2="94.8215" gradientUnits="userSpaceOnUse">
<stop stop-color="#025BFF"/>
<stop offset="1" stop-color="#028BFF"/>
</linearGradient>
<linearGradient id="paint2_linear" x1="50.5682" y1="0.824219" x2="50.5682" y2="94.8215" gradientUnits="userSpaceOnUse">
<stop stop-color="#025BFF"/>
<stop offset="1" stop-color="#028BFF"/>
</linearGradient>
<linearGradient id="paint3_linear" x1="50.5682" y1="0.824219" x2="50.5682" y2="94.8215" gradientUnits="userSpaceOnUse">
<stop stop-color="#025BFF"/>
<stop offset="1" stop-color="#028BFF"/>
</linearGradient>
<linearGradient id="paint4_linear" x1="50.5682" y1="0.824219" x2="50.5682" y2="94.8215" gradientUnits="userSpaceOnUse">
<stop stop-color="#025BFF"/>
<stop offset="1" stop-color="#028BFF"/>
</linearGradient>
<linearGradient id="paint5_linear" x1="50.5682" y1="0.824219" x2="50.5682" y2="94.8215" gradientUnits="userSpaceOnUse">
<stop stop-color="#025BFF"/>
<stop offset="1" stop-color="#028BFF"/>
</linearGradient>
<linearGradient id="paint6_linear" x1="50.5682" y1="0.824219" x2="50.5682" y2="94.8215" gradientUnits="userSpaceOnUse">
<stop stop-color="#025BFF"/>
<stop offset="1" stop-color="#028BFF"/>
</linearGradient>
<linearGradient id="paint7_linear" x1="50.5682" y1="0.824219" x2="50.5682" y2="94.8215" gradientUnits="userSpaceOnUse">
<stop stop-color="#025BFF"/>
<stop offset="1" stop-color="#028BFF"/>
</linearGradient>
<linearGradient id="paint8_linear" x1="50.5682" y1="0.824219" x2="50.5682" y2="94.8215" gradientUnits="userSpaceOnUse">
<stop stop-color="#025BFF"/>
<stop offset="1" stop-color="#028BFF"/>
</linearGradient>
<linearGradient id="paint9_linear" x1="50.5682" y1="0.824219" x2="50.5682" y2="94.8215" gradientUnits="userSpaceOnUse">
<stop stop-color="#025BFF"/>
<stop offset="1" stop-color="#028BFF"/>
</linearGradient>
<linearGradient id="paint10_linear" x1="50.5682" y1="0.824219" x2="50.5682" y2="94.8215" gradientUnits="userSpaceOnUse">
<stop stop-color="#025BFF"/>
<stop offset="1" stop-color="#028BFF"/>
</linearGradient>
<linearGradient id="paint11_linear" x1="50.5682" y1="0.824219" x2="50.5682" y2="94.8215" gradientUnits="userSpaceOnUse">
<stop stop-color="#025BFF"/>
<stop offset="1" stop-color="#028BFF"/>
</linearGradient>
<linearGradient id="paint12_linear" x1="50.5682" y1="0.824219" x2="50.5682" y2="94.8215" gradientUnits="userSpaceOnUse">
<stop stop-color="#025BFF"/>
<stop offset="1" stop-color="#028BFF"/>
</linearGradient>
<linearGradient id="paint13_linear" x1="50.5682" y1="0.824219" x2="50.5682" y2="94.8215" gradientUnits="userSpaceOnUse">
<stop stop-color="#025BFF"/>
<stop offset="1" stop-color="#028BFF"/>
</linearGradient>
<linearGradient id="paint14_linear" x1="50.5682" y1="0.824219" x2="50.5682" y2="94.8215" gradientUnits="userSpaceOnUse">
<stop stop-color="#025BFF"/>
<stop offset="1" stop-color="#028BFF"/>
</linearGradient>
</defs>
</svg>
