<svg xmlns="http://www.w3.org/2000/svg" width="300" height="56" fill="none" viewBox="0 0 300 56"><path fill="#373435" d="M220.58 55.2h2.564V0h-2.564v55.2ZM265.471 55.2h2.564V0h-2.564v55.2ZM175.744 55.2h2.509V0h-2.509v55.2ZM131.017 55.2h2.564V0h-2.564v55.2ZM86.126 55.2h2.564V0h-2.564v55.2ZM76.253 40.745c-.819 1.473-2.182 2.837-4.092 3.982-1.909 1.2-4.309 1.8-7.254 1.8-3.873 0-6.982-1.2-9.327-3.546-2.346-2.29-3.546-5.672-3.546-9.981V22.09c0-4.254 1.146-7.581 3.382-9.872 2.236-2.345 5.182-3.546 8.891-3.546 3.763 0 6.654.982 8.618 2.837 2.018 1.909 3.055 4.582 3.219 7.963l-.055.164h-4.855c-.109-2.29-.709-4.036-1.854-5.236-1.091-1.255-2.782-1.854-5.018-1.854-2.237 0-3.982.818-5.291 2.454-1.31 1.582-1.91 3.927-1.91 7.036V33c0 3.109.655 5.509 2.073 7.145 1.364 1.691 3.273 2.51 5.673 2.51 1.746 0 3.11-.328 4.091-.928.928-.6 1.69-1.364 2.127-2.291V31.09h-6.272v-3.709h11.4v13.364Z"/><path fill="#373435" fill-rule="evenodd" d="M115.416 37.42h-11.727l-2.673 9.273h-5.237L107.125 9.93h4.909l11.236 36.763h-5.182l-2.672-9.273Zm-10.582-4.036h9.382l-4.582-16.09h-.164l-4.636 16.09Z" clip-rule="evenodd"/><path fill="#373435" d="m145.963 9.93 8.618 30h.164l8.618-30h6.6v36.763h-5.072V32.566l.436-14.127-.164-.055-8.836 28.31h-3.382l-8.836-28.255H144l.436 14.127v14.127h-5.073V9.93h6.6ZM201.818 9.93h-5.073v36.763h5.073V9.93ZM257.015 46.693h-5.073l-13.964-27.327h-.163v27.327h-5.127V9.93h5.127l13.964 27.272.163-.054V9.93h5.073v36.763ZM299.999 40.964c-.872 1.472-2.236 2.782-4.145 3.982-1.855 1.2-4.309 1.745-7.255 1.745-3.818 0-6.982-1.146-9.327-3.491-2.346-2.345-3.545-5.673-3.545-9.982V22.31c0-4.254 1.145-7.582 3.381-9.927 2.237-2.345 5.237-3.49 8.946-3.49 3.709 0 6.6.926 8.618 2.836 1.963 1.909 3 4.527 3.164 7.963l-.055.164h-4.855c-.054-2.346-.709-4.091-1.8-5.291-1.145-1.2-2.782-1.8-5.018-1.8-2.236 0-3.982.818-5.291 2.4-1.309 1.636-1.963 3.982-1.963 7.036v10.964c0 3.163.709 5.563 2.072 7.2 1.419 1.636 3.273 2.454 5.673 2.454 1.746 0 3.109-.272 4.091-.872.982-.6 1.691-1.364 2.182-2.291v-8.346h-6.327v-3.763h11.454v13.418Z"/><path fill="#FECA0A" fill-rule="evenodd" d="M17.29 25.581h3.982c1.473-.054 2.619-.49 3.382-1.309.764-.818 1.146-1.963 1.146-3.545 0-1.691-.382-2.945-1.2-3.764-.819-.818-2.018-1.2-3.655-1.2h-3.654v9.818Zm0 5.018v10.473h5.073c1.528 0 2.673-.436 3.437-1.254.709-.873 1.09-2.073 1.09-3.764 0-1.745-.326-3.109-.927-4.036-.654-.982-1.69-1.419-3.108-1.419H17.29Zm-6.654 16.255V10.036h10.8c3.818 0 6.764.819 8.891 2.51 2.127 1.69 3.218 4.2 3.218 7.527 0 1.745-.381 3.327-1.145 4.69-.818 1.364-1.964 2.346-3.545 3.055 1.963.436 3.381 1.418 4.309 2.945.927 1.528 1.418 3.273 1.418 5.346 0 3.49-1.037 6.164-3.055 8.018-2.018 1.8-4.854 2.727-8.618 2.727H10.636ZM0 0h43.964v55.2H0V0Z" clip-rule="evenodd"/></svg>