<svg xmlns="http://www.w3.org/2000/svg" width="300" height="300" fill="none" viewBox="0 0 300 300"><path fill="#E40707" d="M95.86 126.666c-3.728-8.534-16.585-9.666-22.17-2.762-2.234 3.415-2.06 7.474-1.894 11.388.07 1.642.14 3.258.029 4.79 1.846-.056 3.692-.011 5.533.034 4.29.104 8.554.208 12.723-.966 5.22-1.305 7.27-7.823 5.78-12.484ZM78.628 158.006c-2.281.052-4.558.103-6.803-.006v26.245c6.89 3.562 14.907 3.003 22.17 2.071 10.62-3.722 11.366-22.171.747-26.452-5.134-2.106-10.636-1.982-16.114-1.858Z"/><path fill="#E40707" fill-rule="evenodd" d="M129.763 15.107c66.886-10.433 130.975 31.672 149.231 98.178 10.06 36.705 4.661 78.064-16.205 109.923-19.002 8.755-40.427 10.246-60.92 9.314-16.307-.798-32.444-3.282-48.593-5.767-17.803-2.74-35.62-5.482-53.694-5.971-19.374-.559-39.308 2.071-57.377 10.06C-1.578 170.11 11.278 84.596 70.894 40.06c17.137-13.029 37.444-21.404 58.869-24.953Zm20.127 2.603c-1.886 5.66-3.691 11.316-5.514 17.028l-.002.008c-.879 2.752-1.761 5.518-2.659 8.304-2.189 0-4.378-.011-6.566-.023-6.565-.035-13.127-.07-19.672.21 7.077 5.213 14.155 10.433 21.239 15.832a1309.307 1309.307 0 0 1-3.416 10.758v.001c-1.547 4.823-3.102 9.672-4.594 14.581l21.239-15.646 21.232 15.646c-1.325-4.266-2.699-8.58-4.074-12.894a1841.728 1841.728 0 0 1-3.935-12.446l.154-.114c6.978-5.161 14.004-10.358 21.029-15.718-5.838-.125-11.677-.083-17.508-.042h-.001c-2.912.021-5.822.042-8.728.042-.916-2.84-1.829-5.64-2.733-8.413l-.002-.005c-1.884-5.778-3.73-11.442-5.489-17.109ZM88.963 50.687c-.47 2.164-.846 4.326-1.221 6.488-.369 2.123-.737 4.245-1.196 6.368L73.69 65.221l11.365 6.332c-.245 1.411-.49 2.842-.736 4.273v.001c-.5 2.916-1 5.831-1.501 8.582l.02-.02c3.163-2.975 6.318-5.945 9.48-9.108.888.493 1.776.994 2.665 1.497 2.847 1.607 5.718 3.228 8.701 4.648-.949-1.989-1.898-4.029-2.847-6.068l-.001-.002c-.915-1.966-1.83-3.933-2.745-5.854 3.169-2.976 6.338-6.145 9.321-9.128l-12.856 1.678c-1.864-3.349-3.729-7.264-5.593-11.365ZM205.238 62.61l-12.856-1.678.001.002c3.169 3.169 6.151 6.15 9.32 9.126a733.12 733.12 0 0 0-2.746 5.856 703.821 703.821 0 0 1-2.847 6.069l11.365-6.145a420.654 420.654 0 0 1 4.75 4.563l.001.001a436.37 436.37 0 0 0 4.75 4.564c-.607-2.794-1.056-5.663-1.502-8.51-.238-1.522-.475-3.039-.735-4.533 1.29-.717 2.58-1.45 3.878-2.188h.001c2.452-1.394 4.931-2.803 7.486-4.144l-12.856-1.678c-.441-2.043-.799-4.128-1.154-6.194-.39-2.269-.775-4.516-1.263-6.662-1.885 3.728-3.749 7.643-5.593 11.551ZM48.163 81.427l.56 7.83-7.264 2.975 7.45 1.865.56 7.823.052-.091c1.288-2.2 2.577-4.404 4.049-6.427l7.45 1.677-4.834-5.965 4.102-6.705-7.264 2.983a75.148 75.148 0 0 0-4.86-5.965Zm198.414 5.965-7.078-2.983 4.102 6.705c-.879 1.085-1.758 2.107-2.637 3.13-.799.929-1.598 1.859-2.397 2.835l7.45-1.677 4.102 6.518.559-7.823 7.45-1.865-7.077-2.975.559-7.83-5.033 5.965ZM67.911 100.988c-8.196 2.237-16.02 7.429-20.1 15.093-.213 15.324-.182 30.651-.152 46.011v.002c.023 11.527.046 23.075-.034 34.655a61.4 61.4 0 0 0 20.12 9.128c8.385 2.236 16.95 1.678 25.535 1.119l.012-.001c8.59-.559 17.324-2.762 23.663-8.755 9.873-8.755 12.849-24.222 7.636-36.512-2.762-6.905-8.941-11.738-15.466-14.721 6.525-4.101 11.551-11.178 11.178-19.188.187-14.348-12.103-26.831-25.706-28.31-8.81-.938-17.924-.938-26.686 1.479Zm56.266 19.913c-3.347-9.483-9.675-18.403-19.299-21.957 10.263 0 20.548.02 30.846.041H135.744c20.699.041 41.455.083 62.21-.041-11.179 3.721-20.307 12.104-26.832 21.984h-12.104v86.226h-21.984v-86.253h-12.857Zm76.601-19.009a48.022 48.022 0 0 0-27.205 24.408c-6.145 12.484-7.077 26.825-5.026 40.427 1.864 12.857 8.195 24.967 18.442 32.977 9.667 7.637 22.357 10.06 34.095 9.128 11.925-.932 24.402-4.281 33.902-12.111v-51.578H219.22v19.747h13.975v19.748c-7.27 5.033-16.958 5.033-25.154 2.071-8.941-3.535-15.093-12.483-16.951-21.798-1.864-9.501-1.305-19.374 2.231-28.309 3.355-8.196 10.246-14.907 18.822-16.571 10.619-2.797 21.605 1.857 29.621 8.755a890.584 890.584 0 0 0 3.005-5.918c2.109-4.176 4.216-8.35 6.496-12.525-13.444-12.518-33.75-14.01-50.515-8.423l.028-.028Z" clip-rule="evenodd"/><path fill="#E40707" d="M149.485 231.93c-11.844-1.811-23.685-3.622-35.541-4.814h-.014c8.757 2.003 17.263 4.846 25.744 7.681 4.15 1.387 8.294 2.773 12.459 4.057 20.121 6.711 40.241 13.229 61.293 16.026 7.112.745 14.348 1.491 21.612.186 9.128-6.898 16.385-15.653 23.29-24.781a101.497 101.497 0 0 1-27.384 6.704c-27.338 3.218-54.409-.922-81.459-5.059ZM132.863 245.439c-14.578-4.788-29.207-9.593-44.46-9.934 0 0 .001 0 0 0h-.007.008c13.263 3.163 25.526 9.501 37.416 16.392 6.695 3.989 13.277 8.099 19.837 12.197 9.679 6.044 19.31 12.059 29.186 17.61.527.176 1.036.444 1.544.711 1.108.584 2.211 1.164 3.489.781 13.409-2.983 25.893-8.383 37.817-15.094-22.823-1.822-44.407-9.115-65.963-16.4-4.836-1.634-9.671-3.267-14.518-4.839-1.449-.471-2.899-.947-4.349-1.424ZM101.819 265.499c-10.62-5.22-22.544-6.898-34.282-7.644a138.738 138.738 0 0 0 67.818 28.323c-1.354-.934-2.704-1.874-4.055-2.814-9.435-6.565-18.887-13.142-29.481-17.865Z"/><path fill="#E40707" fill-rule="evenodd" d="M137.406 2.623c79.922-6.89 150.156 53.318 157.054 134.697 4.094 48.25-15.28 95.575-51.785 126.501a142.978 142.978 0 0 1-181.47 3.169C-2.137 216.869-13.69 123.904 35.494 59.255A144.82 144.82 0 0 1 137.405 2.623Zm1.118 5.027C61.392 13.988 3.828 82.918 9.973 161.54c6.145 78.624 73.776 137.3 150.902 130.969 77.332-6.332 134.704-75.082 128.551-153.885a143.912 143.912 0 0 0-64.648-109.177A137.956 137.956 0 0 0 138.524 7.65Z" clip-rule="evenodd"/></svg>