<svg xmlns="http://www.w3.org/2000/svg" viewBox="0 0 147.62 34.92"><defs><style>.a{fill:#8cc23c;}.b{fill:#033564;}</style></defs><title>ecoPayz logo</title><path class="a" d="M26.63,10C12.56,10,1.19,16.7,1.19,25c0,3.5,2.06,6.72,5.55,9.31a11.08,11.08,0,0,1-2.69-7c0-8.56,11.15-15.51,24.87-15.51,8.86,0,16.64,2.87,21,7.24C46,13.72,37,10,26.63,10Z" transform="translate(-1.19 -10.04)"/><path class="b" d="M24.39,29.2a4.31,4.31,0,0,0,2.5-.65,2.36,2.36,0,0,0,1.1-2.1,7.58,7.58,0,0,0-1.67-4.71,10.26,10.26,0,0,0-8.33-4,10,10,0,0,0-7.4,2.92,9.66,9.66,0,0,0-2.9,7.05,9.22,9.22,0,0,0,3,7,10.64,10.64,0,0,0,7.57,2.84A15.73,15.73,0,0,0,23,36.84a7.55,7.55,0,0,0,3.86-2.31,2.6,2.6,0,0,0,.68-1.65q0-2.17-2.42-2.17a11,11,0,0,0-2.73.91,10.11,10.11,0,0,1-3.75.91,5.52,5.52,0,0,1-3.14-.86A3.29,3.29,0,0,1,14,29.2Zm-9.08-6A4.12,4.12,0,0,1,18,22.25a4.09,4.09,0,0,1,2.71.93A3.31,3.31,0,0,1,22,25.55H13.91A4.07,4.07,0,0,1,15.31,23.16Z" transform="translate(-1.19 -10.04)"/><path class="b" d="M31.39,34.64a9.92,9.92,0,0,0,7.42,2.86,11.36,11.36,0,0,0,4.62-.83Q46,35.5,46,33.81a2.4,2.4,0,0,0-.66-1.7,2.26,2.26,0,0,0-1.72-.71,5.4,5.4,0,0,0-1.82.41,6.72,6.72,0,0,1-2.38.41A4.3,4.3,0,0,1,36,30.85,4.91,4.91,0,0,1,35,27.55a5.15,5.15,0,0,1,1-3.27,3.85,3.85,0,0,1,3.22-1.45,6.94,6.94,0,0,1,2.44.43,5.67,5.67,0,0,0,1.87.43A2.52,2.52,0,0,0,45.32,23,2.24,2.24,0,0,0,46,21.32q0-1.93-2.5-2.89a12.5,12.5,0,0,0-4.35-.69,10.56,10.56,0,0,0-7.65,2.77,9.47,9.47,0,0,0-2.88,7.14,9.51,9.51,0,0,0,2.73,7Z" transform="translate(-1.19 -10.04)"/><path class="b" d="M49,34.67a10.25,10.25,0,0,0,7.53,2.92,10.24,10.24,0,0,0,7.53-2.89,9.61,9.61,0,0,0,2.8-7.05,9.7,9.7,0,0,0-2.84-7.12,10.1,10.1,0,0,0-7.49-2.86,10.16,10.16,0,0,0-7.48,2.87,9.61,9.61,0,0,0-2.9,7.11,9.5,9.5,0,0,0,2.84,7Zm4.43-10.25a3.64,3.64,0,0,1,3.1-1.48,3.57,3.57,0,0,1,3.07,1.51,5.11,5.11,0,0,1,1,3.17,5.22,5.22,0,0,1-.95,3.2,3.61,3.61,0,0,1-3.1,1.51,3.57,3.57,0,0,1-3.07-1.51,5.17,5.17,0,0,1-1-3.2,5.31,5.31,0,0,1,.95-3.2Z" transform="translate(-1.19 -10.04)"/><path class="a" d="M75.49,17.19h2.73q4.31,0,4.31,3.27T78.21,23.8H75.49Zm0,16.09V29h4.24a10.37,10.37,0,0,0,7-2.24,7.9,7.9,0,0,0,2.57-6.3,7.69,7.69,0,0,0-2.84-6.37,11.25,11.25,0,0,0-7.27-2.17H73.56a5,5,0,0,0-3.41.89,4.2,4.2,0,0,0-.95,3.13V33.27q0,4.05,3.14,4.05t3.14-4Z" transform="translate(-1.19 -10.04)"/><path class="a" d="M97,24.52a3.56,3.56,0,0,1,3-1.41,3.5,3.5,0,0,1,3,1.41,5.06,5.06,0,0,1,.9,3.06,5.21,5.21,0,0,1-.9,3.1,3.47,3.47,0,0,1-3,1.45,3.57,3.57,0,0,1-3-1.45,5.06,5.06,0,0,1-.94-3.1,4.88,4.88,0,0,1,1-3.06Zm10,12.8q3,0,3-4.07V22.05q0-4-3-4a3.26,3.26,0,0,0-2.91,1.75,6.4,6.4,0,0,0-4.92-2,8.82,8.82,0,0,0-6.93,3.1,9.87,9.87,0,0,0-2.57,6.78,10,10,0,0,0,2.46,6.71A8.63,8.63,0,0,0,99,37.46a6.58,6.58,0,0,0,5.15-2.1,3,3,0,0,0,2.91,2Z" transform="translate(-1.19 -10.04)"/><path class="a" d="M124.24,20.22,120.5,29.1,117,20.7a6.55,6.55,0,0,0-1-1.89,2.75,2.75,0,0,0-2.08-.79,3,3,0,0,0-2.14.79,2.57,2.57,0,0,0-.85,2,3.59,3.59,0,0,0,.34,1.55l6.17,13.11-2.52,5a4.47,4.47,0,0,0-.51,1.88,2.44,2.44,0,0,0,.83,2,3.24,3.24,0,0,0,2.2.72q1.63,0,2.69-2.24l9.35-20.13a4.67,4.67,0,0,0,.49-1.93q0-2.65-3-2.65-1.74,0-2.69,2.2Z" transform="translate(-1.19 -10.04)"/><path class="a" d="M145,31.88h-6l8.12-9.49a4.15,4.15,0,0,0,1.24-2.45,1.3,1.3,0,0,0-.95-1.4,10.65,10.65,0,0,0-2.91-.29h-9.8q-3.9,0-3.9,2.51t3.86,2.55h5.26l-8.4,9.88a3.3,3.3,0,0,0-.91,2.13q0,1.72,3.22,1.72H145q3.86,0,3.86-2.55T145,31.88Z" transform="translate(-1.19 -10.04)"/></svg>