<svg width="300" height="233" viewBox="0 0 300 233" fill="none" xmlns="http://www.w3.org/2000/svg">
<path d="M54.5922 232.275V216.824C54.5922 210.902 50.9871 207.039 44.8069 207.039C41.7167 207.039 38.3691 208.069 36.0515 211.417C34.2489 208.584 31.6738 207.039 27.8111 207.039C25.236 207.039 22.6609 207.811 20.6009 210.644V207.554H15.1931V232.275H20.6009V218.627C20.6009 214.249 22.9184 212.189 26.5236 212.189C30.1287 212.189 31.9313 214.507 31.9313 218.627V232.275H37.3391V218.627C37.3391 214.249 39.9141 212.189 43.2618 212.189C46.8669 212.189 48.6695 214.507 48.6695 218.627V232.275H54.5922V232.275ZM134.678 207.554H125.923V200.086H120.515V207.554H115.622V212.447H120.515V223.777C120.515 229.442 122.833 232.79 129.013 232.79C131.33 232.79 133.906 232.017 135.708 230.987L134.163 226.352C132.618 227.382 130.815 227.64 129.528 227.64C126.953 227.64 125.923 226.095 125.923 223.52V212.447H134.678V207.554V207.554ZM180.515 207.039C177.425 207.039 175.365 208.584 174.077 210.644V207.554H168.67V232.275H174.077V218.369C174.077 214.249 175.88 211.932 179.227 211.932C180.257 211.932 181.545 212.189 182.575 212.447L184.12 207.296C183.09 207.039 181.545 207.039 180.515 207.039V207.039ZM111.245 209.614C108.669 207.811 105.064 207.039 101.202 207.039C95.0214 207.039 90.9013 210.129 90.9013 215.022C90.9013 219.142 93.9914 221.46 99.3991 222.232L101.974 222.49C104.807 223.005 106.352 223.777 106.352 225.065C106.352 226.867 104.292 228.155 100.687 228.155C97.0815 228.155 94.2489 226.867 92.4463 225.58L89.8712 229.7C92.7039 231.76 96.5665 232.79 100.429 232.79C107.639 232.79 111.76 229.442 111.76 224.807C111.76 220.43 108.412 218.112 103.262 217.339L100.687 217.082C98.369 216.824 96.5665 216.309 96.5665 214.764C96.5665 212.962 98.3691 211.932 101.202 211.932C104.292 211.932 107.382 213.219 108.927 213.992L111.245 209.614V209.614ZM254.936 207.039C251.846 207.039 249.785 208.584 248.498 210.644V207.554H243.09V232.275H248.498V218.369C248.498 214.249 250.3 211.932 253.648 211.932C254.678 211.932 255.966 212.189 256.996 212.447L258.541 207.296C257.511 207.039 255.966 207.039 254.936 207.039V207.039ZM185.923 219.914C185.923 227.382 191.073 232.79 199.056 232.79C202.661 232.79 205.236 232.018 207.811 229.957L205.236 225.58C203.176 227.125 201.116 227.897 198.798 227.897C194.421 227.897 191.33 224.807 191.33 219.914C191.33 215.279 194.421 212.189 198.798 211.932C201.116 211.932 203.176 212.704 205.236 214.249L207.811 209.872C205.236 207.811 202.661 207.039 199.056 207.039C191.073 207.039 185.923 212.447 185.923 219.914V219.914ZM235.88 219.914V207.554H230.472V210.644C228.67 208.327 226.094 207.039 222.747 207.039C215.794 207.039 210.386 212.447 210.386 219.914C210.386 227.382 215.794 232.79 222.747 232.79C226.352 232.79 228.927 231.502 230.472 229.185V232.275H235.88V219.914ZM216.052 219.914C216.052 215.537 218.884 211.932 223.519 211.932C227.897 211.932 230.987 215.279 230.987 219.914C230.987 224.292 227.897 227.897 223.519 227.897C218.884 227.64 216.052 224.292 216.052 219.914ZM151.416 207.039C144.206 207.039 139.056 212.189 139.056 219.914C139.056 227.64 144.206 232.79 151.674 232.79C155.279 232.79 158.884 231.76 161.717 229.442L159.142 225.58C157.082 227.125 154.506 228.155 151.931 228.155C148.584 228.155 145.236 226.61 144.463 222.232H162.747V220.172C163.004 212.189 158.369 207.039 151.416 207.039V207.039ZM151.416 211.674C154.764 211.674 157.082 213.734 157.597 217.597H144.721C145.236 214.249 147.554 211.674 151.416 211.674ZM285.579 219.914V197.769H280.172V210.644C278.369 208.327 275.794 207.039 272.446 207.039C265.494 207.039 260.086 212.447 260.086 219.914C260.086 227.382 265.494 232.79 272.446 232.79C276.051 232.79 278.627 231.502 280.172 229.185V232.275H285.579V219.914ZM265.751 219.914C265.751 215.537 268.584 211.932 273.219 211.932C277.597 211.932 280.687 215.279 280.687 219.914C280.687 224.292 277.597 227.897 273.219 227.897C268.584 227.64 265.751 224.292 265.751 219.914ZM84.9785 219.914V207.554H79.5708V210.644C77.7682 208.327 75.1931 207.039 71.8455 207.039C64.8927 207.039 59.4849 212.447 59.4849 219.914C59.4849 227.382 64.8927 232.79 71.8455 232.79C75.4506 232.79 78.0257 231.502 79.5708 229.185V232.275H84.9785V219.914ZM64.8927 219.914C64.8927 215.537 67.7253 211.932 72.3605 211.932C76.7381 211.932 79.8283 215.279 79.8283 219.914C79.8283 224.292 76.7381 227.897 72.3605 227.897C67.7253 227.64 64.8927 224.292 64.8927 219.914Z" fill="black"/>
<path d="M190.558 19.8281H109.442V165.579H190.558V19.8281Z" fill="#FF5F00"/>
<path d="M114.592 92.7039C114.592 63.0901 128.498 36.8241 149.871 19.8284C134.163 7.46784 114.335 0 92.7039 0C41.4592 0 0 41.4592 0 92.7039C0 143.949 41.4592 185.408 92.7039 185.408C114.335 185.408 134.163 177.94 149.871 165.579C128.498 148.841 114.592 122.318 114.592 92.7039Z" fill="#EB001B"/>
<path d="M300 92.7039C300 143.949 258.541 185.408 207.296 185.408C185.665 185.408 165.837 177.94 150.129 165.579C171.76 148.584 185.408 122.318 185.408 92.7039C185.408 63.0901 171.502 36.8241 150.129 19.8284C165.837 7.46784 185.665 0 207.296 0C258.541 0 300 41.7167 300 92.7039Z" fill="#F79E1B"/>
</svg>
