<svg xmlns="http://www.w3.org/2000/svg" width="300" height="100" fill="none" viewBox="0 0 300 100"><path fill="#000" d="M177.21 23.58c-4.456-4.527-10.844-6.295-17.054-6.295-6.035 0-12.368.778-18.154 2.535v53.82l12.581-.04V61.618a22.929 22.929 0 0 0 9.287 1.938c5.528 0 10.914-2.028 14.433-6.419 3.749-4.637 4.984-10.792 4.984-16.627 0-6.117-1.676-12.477-6.077-16.93Zm-15.705 29.34c-2.328 0-4.937-.498-6.922-1.776V28.432c1.806-.317 3.657-.427 5.488-.427 3.434 0 6.023 1.17 7.767 3.512 1.744 2.333 2.613 5.441 2.613 9.325 0 8.054-2.985 12.077-8.946 12.077ZM191.522 48.843c0 3.933.503 8.273 3.419 11.187 2.402 2.403 5.835 3.427 9.118 3.887V0h-12.537v48.843ZM246.518 22.067c-3.882-4.082-9.964-4.922-15.317-4.922-4.953 0-10.106.676-14.853 2.124l1.613 10.186c3.719-1.379 7.856-1.783 11.798-1.783 3.225 0 5.48.65 6.783 1.953 1.046 1.039 1.658 2.357 1.868 3.946-1.981-.336-4.011-.41-6.015-.41-4.779 0-9.882.733-14.016 3.278-4.145 2.542-6.193 6.958-6.193 11.736 0 4.782 1.559 9.447 5.643 12.24 5.008 3.43 11.781 3.773 17.635 3.411 5.115-.208 10.173-1.034 15.17-2.124v-26.31c0-4.684-.784-9.786-4.116-13.325ZM238.495 53.3a66.66 66.66 0 0 1-4.829.155c-3.87 0-8.008-1.067-8.008-5.643 0-4.912 5.51-5.55 9.279-5.55 1.188 0 2.381.093 3.558.248v10.79ZM299.997 18.3c-5.604 18.861-10.5 30.95-21.891 55.347h-12.395c2.432-4.152 4.258-8.566 6.403-12.86-6.939-13.58-12.446-27.85-16.697-42.487h13.341a255.772 255.772 0 0 0 9.217 28.557c3.529-9.287 6.723-18.838 8.969-28.541l.03.038a.14.14 0 0 1 .016-.054h13.007Z"/><path fill="#01A3FB" d="M.002 40.842c0-6.473 1.915-13.058 6.586-17.73 3.865-3.866 9.236-5.995 14.691-5.995 6.302 0 11.285 1.929 14.945 5.783 5.494 5.793 5.843 14.203 5.235 21.741H12.92c.667 6.146 6.792 8.444 12.242 8.444 4.074 0 8.482-.54 12.243-2.196l1.689 10.216c-4.602 2.306-10.62 2.786-15.62 2.786-6.488 0-13.193-1.781-17.773-6.627C1.554 52.874.002 46.754.002 40.842Zm29.551-4.813c-.11-2.067-.65-4.198-1.984-5.826-1.53-1.858-3.752-2.701-6.121-2.701-2.342 0-4.613.807-6.164 2.617-1.404 1.64-2.033 3.814-2.364 5.91h16.633ZM61.425 62.71c-7.237-14.132-12.671-29.22-17.203-44.411h13.34c2.537 9.862 5.542 19.808 9.245 29.297 3.484-9.627 6.687-19.38 9.238-29.297h13.01c-4.533 15.19-9.96 30.277-17.19 44.41h-10.44ZM134.429 40.42c0 3.49-.506 6.685-1.519 9.582-1.013 2.9-2.478 5.376-4.391 7.43-4.104 4.407-9.931 6.46-15.873 6.46-13.281 0-21.868-10.669-21.868-23.472 0-12.644 8.778-23.303 21.868-23.303 3.208 0 6.149.563 8.824 1.688 8.688 3.663 12.959 12.509 12.959 21.615Zm-12.833 0c0-5.703-2.187-12.496-8.95-12.496-6.767 0-9.035 6.768-9.035 12.496 0 5.708 2.244 12.665 9.035 12.665 6.787 0 8.95-6.982 8.95-12.665Z"/><path fill="#000" d="M35.784 94.283h5.285v-1.82h-5.285v-2.96h5.936v-1.855h-8.28v12.005h8.726v-1.854h-6.382v-3.516ZM59.4 95.616c-1.902-2.799-4.647-5.867-6.44-7.968h-1.917v12.005h2.31v-8.592c2.383 2.647 4.464 5.593 6.38 8.592h1.992V87.648H59.4v7.968Zm10.811-6.08h3.964v10.117h2.363V89.536h3.964v-1.888h-10.29v1.888Zm21.122 4.747h5.285v-1.82h-5.285v-2.96h5.935v-1.855h-8.28v12.005h8.729v-1.854h-6.384v-3.516Zm21.978.416c1.724-.578 2.586-1.493 2.586-3.31 0-1.304-.492-2.274-1.48-2.909-.985-.636-2.408-.953-4.269-.953-1.186 0-2.389.059-3.554.294v11.832h2.343v-4.539c.644 0 1.293.025 1.936-.017a30.022 30.022 0 0 1 3.183 4.556h2.624a23.092 23.092 0 0 0-3.369-4.954Zm-1.843-1.438c-.838.113-1.688.087-2.531.087v-3.88c.873-.072 1.776-.1 2.643.043 1.033.169 1.861.761 1.861 1.862 0 1.173-.87 1.74-1.973 1.888Zm12.431-3.725h3.965v10.117h2.364V89.536h3.963v-1.888h-10.292v1.888Zm23.653-1.888h-2.237c-1.969 3.889-3.617 7.928-5.151 12.005h2.438c.347-.923.718-1.853 1.064-2.824h5.447c.338.95.732 1.879 1.082 2.824h2.532c-1.54-4.075-3.197-8.121-5.175-12.005Zm-3.284 7.415c.66-1.715 1.343-3.428 2.121-5.093.774 1.668 1.459 3.378 2.121 5.093h-4.242Zm16.777 4.59h2.343V87.648h-2.343v12.005Zm20.488-4.037c-1.473-2.18-3.123-4.25-4.838-6.244a27.227 27.227 0 0 0-1.601-1.724h-1.916v12.005h2.307v-8.592c1.822 2.022 3.424 4.233 4.97 6.47.52.756.992 1.463 1.414 2.122h1.989V87.648h-2.325v7.968Zm24.844-7.968h-2.113c-1.52 2.45-2.672 5.136-3.889 7.743-1.213-2.608-2.388-5.295-3.907-7.743h-2.17c-.548 3.975-.8 8-1.004 12.005h2.307c.105-2.872.206-5.749.494-8.61 1.223 2.288 2.267 4.67 3.369 7.016h1.749c1.087-2.355 2.175-4.713 3.368-7.015.288 2.86.388 5.737.493 8.609h2.307c-.205-4.01-.486-8.023-1.004-12.005Zm12.765 6.635h5.287v-1.82h-5.287v-2.96h5.937v-1.855h-8.282v12.005h8.729v-1.854h-6.384v-3.516Zm23.617 1.333c-1.899-2.8-4.011-5.597-6.441-7.968h-1.916v12.005h2.307v-8.592c1.824 2.017 3.431 4.231 4.969 6.47.523.756.993 1.463 1.415 2.122h1.992V87.648h-2.326v7.968Zm10.812-7.968v1.888h3.963v10.117h2.364V89.536h3.964v-1.888h-10.291Z"/></svg>