<svg xmlns="http://www.w3.org/2000/svg" width="300" height="68" fill="none" viewBox="0 0 300 68"><g clip-path="url(#a)"><path fill="url(#b)" d="M17.358 37.8a8.516 8.516 0 0 1-8.52-8.523 8.516 8.516 0 0 1 8.52-8.524c4.71 0 8.52 3.812 8.52 8.524-.053 4.712-3.863 8.524-8.52 8.524Zm17.304-25.835h-8.784v2.277a17.172 17.172 0 0 0-8.52-2.224C7.832 12.018.053 19.8.053 29.33c0 9.53 7.726 17.26 17.305 17.26 9.578 0 17.304-7.783 17.304-17.313V11.965Z"/><path fill="url(#c)" d="M8.785 67.29H0c0-9.477 7.726-17.207 17.199-17.207h17.463v8.789H17.2c-4.657-.053-8.414 3.759-8.414 8.418Z"/><path fill="url(#d)" d="M46.992 46.59h-8.784V29.117c0-9.476 7.726-17.206 17.199-17.206v8.789c-4.657 0-8.467 3.811-8.467 8.47V46.59h.052Z"/><path fill="url(#e)" d="M207.762 46.59c-9.526 0-17.252-7.73-17.252-17.207V11.965h8.784v17.418c0 4.659 3.811 8.47 8.468 8.47 4.656 0 8.467-3.811 8.467-8.47V11.965h8.784v17.418c-.053 9.477-7.779 17.206-17.251 17.206Z"/><path fill="url(#f)" d="M165.373 46.59h-8.732V29.223c0-4.659-3.81-8.47-8.467-8.47s-8.467 3.811-8.467 8.47V46.59h-8.784V29.224c0-9.477 7.726-17.206 17.198-17.206 9.473 0 17.199 7.73 17.199 17.206V46.59h.053Z"/><path fill="url(#g)" d="M246.234 37.854c-4.657 0-8.467-3.812-8.467-8.471 0-4.659 3.81-8.47 8.467-8.47s8.467 3.811 8.467 8.47c0 4.659-3.81 8.47-8.467 8.47Zm0-25.677c-3.069 0-5.98.794-8.467 2.223V0h-8.785v29.383c0 9.477 7.726 17.206 17.199 17.206 9.473 0 17.199-7.73 17.199-17.206 0-9.477-7.674-17.206-17.146-17.206Z"/><path fill="url(#h)" d="M186.17 20.753v-8.788h-8.467V0h-8.784v29.277c0 9.477 7.726 17.206 17.198 17.206v-8.735c-4.656 0-8.467-3.812-8.467-8.47v-8.525h8.52Z"/><path fill="url(#i)" d="M90.333 33.777c.37-1.376.582-2.859.582-4.394 0-9.477-7.726-17.206-17.198-17.206-9.473 0-17.2 7.73-17.2 17.206 0 9.477 7.674 17.206 17.147 17.206 6.985 0 13.07-4.182 15.717-10.218H78.374a8.322 8.322 0 0 1-4.763 1.483c-4.657 0-8.467-3.812-8.467-8.471 0-4.659 3.81-8.47 8.467-8.47a8.491 8.491 0 0 1 7.25 4.076h-9.579v8.788h19.051Z"/><path fill="url(#j)" d="M108.538 33.777V24.99h9.578a8.492 8.492 0 0 0-7.25-4.077c-4.657 0-8.467 3.812-8.467 8.471 0 4.659 3.81 8.47 8.467 8.47 1.746 0 3.387-.529 4.763-1.482h11.007a17.11 17.11 0 0 1-15.717 10.218c-9.473 0-17.199-7.73-17.199-17.206 0-9.477 7.726-17.206 17.199-17.206 9.473 0 17.199 7.73 17.199 17.206 0 1.535-.212 2.965-.582 4.394h-18.998Z"/><path fill="url(#k)" d="M280.42 33.777V24.99h9.578a8.49 8.49 0 0 0-7.25-4.077c-4.657 0-8.467 3.812-8.467 8.471 0 4.659 3.81 8.47 8.467 8.47 1.747 0 3.387-.529 4.763-1.482h11.007c-2.699 6.036-8.731 10.218-15.717 10.218-9.472 0-17.199-7.73-17.199-17.206 0-9.477 7.674-17.206 17.199-17.206 9.473 0 17.199 7.73 17.199 17.206 0 1.535-.212 2.965-.582 4.394H280.42Z"/></g><defs><linearGradient id="b" x1="149.92" x2="149.92" y1="-29.788" y2="69.332" gradientUnits="userSpaceOnUse"><stop offset="0" stop-color="#B0FF0B"/><stop offset=".112" stop-color="#A7FA0C"/><stop offset=".296" stop-color="#8FED0E"/><stop offset=".527" stop-color="#67D811"/><stop offset=".795" stop-color="#30BC15"/><stop offset="1" stop-color="#02A319"/></linearGradient><linearGradient id="c" x1="150.007" x2="150.007" y1="-211.421" y2="-9.611" gradientUnits="userSpaceOnUse"><stop offset="0" stop-color="#B0FF0B"/><stop offset=".112" stop-color="#A7FA0C"/><stop offset=".296" stop-color="#8FED0E"/><stop offset=".527" stop-color="#67D811"/><stop offset=".795" stop-color="#30BC15"/><stop offset="1" stop-color="#02A319"/></linearGradient><linearGradient id="d" x1="150.081" x2="150.081" y1="-31.583" y2="67.974" gradientUnits="userSpaceOnUse"><stop offset="0" stop-color="#B0FF0B"/><stop offset=".112" stop-color="#A7FA0C"/><stop offset=".296" stop-color="#8FED0E"/><stop offset=".527" stop-color="#67D811"/><stop offset=".795" stop-color="#30BC15"/><stop offset="1" stop-color="#02A319"/></linearGradient><linearGradient id="e" x1="149.932" x2="149.932" y1="-37.371" y2="60.599" gradientUnits="userSpaceOnUse"><stop offset="0" stop-color="#B0FF0B"/><stop offset=".112" stop-color="#A7FA0C"/><stop offset=".296" stop-color="#8FED0E"/><stop offset=".527" stop-color="#67D811"/><stop offset=".795" stop-color="#30BC15"/><stop offset="1" stop-color="#02A319"/></linearGradient><linearGradient id="f" x1="150.151" x2="150.151" y1="-35.581" y2="62.539" gradientUnits="userSpaceOnUse"><stop offset="0" stop-color="#B0FF0B"/><stop offset=".112" stop-color="#A7FA0C"/><stop offset=".296" stop-color="#8FED0E"/><stop offset=".527" stop-color="#67D811"/><stop offset=".795" stop-color="#30BC15"/><stop offset="1" stop-color="#02A319"/></linearGradient><linearGradient id="g" x1="150.467" x2="150.467" y1="-12.041" y2="60.99" gradientUnits="userSpaceOnUse"><stop offset="0" stop-color="#B0FF0B"/><stop offset=".112" stop-color="#A7FA0C"/><stop offset=".296" stop-color="#8FED0E"/><stop offset=".527" stop-color="#67D811"/><stop offset=".795" stop-color="#30BC15"/><stop offset="1" stop-color="#02A319"/></linearGradient><linearGradient id="h" x1="149.917" x2="149.917" y1="-10.016" y2="63.188" gradientUnits="userSpaceOnUse"><stop offset="0" stop-color="#B0FF0B"/><stop offset=".112" stop-color="#A7FA0C"/><stop offset=".296" stop-color="#8FED0E"/><stop offset=".527" stop-color="#67D811"/><stop offset=".795" stop-color="#30BC15"/><stop offset="1" stop-color="#02A319"/></linearGradient><linearGradient id="i" x1="149.659" x2="149.659" y1="-33.004" y2="66.722" gradientUnits="userSpaceOnUse"><stop offset="0" stop-color="#B0FF0B"/><stop offset=".112" stop-color="#A7FA0C"/><stop offset=".296" stop-color="#8FED0E"/><stop offset=".527" stop-color="#67D811"/><stop offset=".795" stop-color="#30BC15"/><stop offset="1" stop-color="#02A319"/></linearGradient><linearGradient id="j" x1="150.007" x2="150.007" y1="-34.738" y2="64.988" gradientUnits="userSpaceOnUse"><stop offset="0" stop-color="#B0FF0B"/><stop offset=".112" stop-color="#A7FA0C"/><stop offset=".296" stop-color="#8FED0E"/><stop offset=".527" stop-color="#67D811"/><stop offset=".795" stop-color="#30BC15"/><stop offset="1" stop-color="#02A319"/></linearGradient><linearGradient id="k" x1="282.794" x2="282.794" y1="-9.681" y2="41.319" gradientUnits="userSpaceOnUse"><stop offset="0" stop-color="#B0FF0B"/><stop offset=".112" stop-color="#A7FA0C"/><stop offset=".296" stop-color="#8FED0E"/><stop offset=".527" stop-color="#67D811"/><stop offset=".795" stop-color="#30BC15"/><stop offset="1" stop-color="#02A319"/></linearGradient><clipPath id="a"><path fill="#fff" d="M0 0h300v67.29H0z"/></clipPath></defs></svg>