<svg width="300" height="300" viewBox="0 0 300 300" fill="none" xmlns="http://www.w3.org/2000/svg">
<path d="M29.2969 5.10891H270.703C273.881 5.10428 277.028 5.72675 279.965 6.94065C282.901 8.15454 285.57 9.93601 287.817 12.1829C290.064 14.4299 291.845 17.0981 293.059 20.0348C294.273 22.9714 294.895 26.1188 294.891 29.2964V29.2964V270.703C294.895 273.88 294.273 277.028 293.059 279.964C291.845 282.901 290.064 285.569 287.817 287.816C285.57 290.063 282.901 291.845 279.965 293.058C277.028 294.272 273.881 294.895 270.703 294.89H29.2969C26.1188 294.896 22.9708 294.275 20.0335 293.062C17.0961 291.848 14.4272 290.067 12.18 287.82C9.93275 285.572 8.15135 282.903 6.938 279.966C5.72466 277.029 5.10324 273.881 5.10942 270.703V270.703V29.2964C5.10479 26.1188 5.72726 22.9714 6.94116 20.0348C8.15505 17.0981 9.93651 14.4299 12.1835 12.1829C14.4304 9.93601 17.0986 8.15454 20.0353 6.94065C22.9719 5.72675 26.1193 5.10428 29.2969 5.10891V5.10891Z" fill="#FDB913"/>
<path d="M270.703 5.10938C273.881 5.10475 277.028 5.72721 279.965 6.94111C282.901 8.15501 285.57 9.93647 287.817 12.1834C290.064 14.4303 291.845 17.0986 293.059 20.0352C294.273 22.9719 294.895 26.1192 294.891 29.2969V270.703C294.895 273.881 294.273 277.028 293.059 279.965C291.845 282.901 290.064 285.57 287.817 287.817C285.57 290.064 282.901 291.845 279.965 293.059C277.028 294.273 273.881 294.895 270.703 294.891H29.2969C26.1188 294.897 22.9708 294.275 20.0334 293.062C17.0961 291.849 14.4272 290.067 12.18 287.82C9.93271 285.573 8.15131 282.904 6.93796 279.967C5.72461 277.029 5.1032 273.881 5.10938 270.703V270.703V29.2969C5.1032 26.1188 5.72461 22.9708 6.93796 20.0334C8.15131 17.0961 9.93271 14.4272 12.18 12.18C14.4272 9.93271 17.0961 8.15131 20.0334 6.93796C22.9708 5.72461 26.1188 5.1032 29.2969 5.10938H270.703ZM270.703 0H29.2969C21.5269 0 14.0751 3.08663 8.58086 8.58086C3.08663 14.0751 0 21.5269 0 29.2969L0 270.703C0 278.473 3.08663 285.925 8.58086 291.419C14.0751 296.913 21.5269 300 29.2969 300H270.703C278.473 300 285.925 296.913 291.419 291.419C296.913 285.925 300 278.473 300 270.703V29.2969C300 21.5269 296.913 14.0751 291.419 8.58086C285.925 3.08663 278.473 0 270.703 0" fill="white"/>
<path d="M166.91 153.129V101.25L180.469 98.0274V104.836C180.469 104.836 183.984 95.8828 192.117 93.8086C193.331 93.4171 194.624 93.3325 195.879 93.5625V106.793C193.443 106.828 191.036 107.33 188.789 108.27C183.785 110.25 181.266 114.563 181.266 121.16V149.801L166.91 153.129Z" fill="#231F20"/>
<path d="M95.5195 170.004C95.5195 170.004 93.3164 166.699 93.3164 155.027V129.246L86.3438 130.91V120.27L93.375 118.617V107.016L107.777 103.617V115.219L117.949 112.793V123.422L107.777 125.848C107.777 125.848 107.777 147.012 107.777 152.145C107.73 164.063 110.906 166.406 110.906 166.406L95.5195 170.004Z" fill="#231F20"/>
<path d="M119.414 139.136C119.414 129.913 120.727 123.175 123.551 118.042C126.902 111.913 132.398 107.917 140.414 106.089C156.211 102.503 161.918 111.855 161.695 124.394C161.613 128.87 161.695 131.062 161.695 131.062L133.863 137.601V138.046C133.863 146.812 135.691 150.937 141.246 149.765C146.039 148.757 147.375 145.745 147.762 142.031C147.762 141.433 147.844 139.909 147.844 139.909L160.887 136.792C160.887 136.792 160.887 137.859 160.887 139.054C160.77 144.034 159.328 156.386 141.199 160.663C124.043 164.741 119.461 154.253 119.461 139.136H119.414ZM141.047 115.698C136.43 116.741 134.016 121.265 133.91 128.765L147.973 125.425C147.973 125.085 147.973 124.347 147.973 123.175C147.973 117.515 146.191 114.527 141.082 115.698" fill="#231F20"/>
<path d="M244.582 108.797C244.043 92.9885 248.098 80.4494 265.77 76.4533C277.008 73.9104 281.273 76.8283 283.441 79.6526C285.609 82.4768 286.313 85.9807 286.313 91.0783V92.0158L272.52 95.2854V93.3752C272.52 87.3283 270.844 85.0315 266.461 86.133C261.246 87.4455 259.137 92.3908 259.137 102.235C259.137 105.75 259.137 106.36 259.137 106.828C259.137 116.836 260.508 121.406 266.52 120.153C271.734 119.074 272.449 114.492 272.531 110.485C272.531 109.852 272.531 107.836 272.531 107.836L286.301 104.578C286.301 104.578 286.301 105.598 286.301 106.735C286.301 119.848 279.352 128.11 266.379 131.133C248.543 135.317 245.039 125.004 244.488 108.797" fill="#231F20"/>
<path d="M196.875 130.91C196.875 118.898 203.906 115.101 214.512 110.707C224.039 106.769 224.25 104.847 224.285 101.332C224.344 98.4489 222.996 95.9763 218.262 97.1833C216.678 97.504 215.249 98.3492 214.204 99.5826C213.16 100.816 212.563 102.365 212.508 103.98C212.433 104.865 212.406 105.753 212.426 106.64L199.066 109.793C198.972 107.129 199.28 104.466 199.98 101.894C202.125 94.7106 208.465 89.8708 219.398 87.3395C233.613 84.07 238.359 90.3044 238.371 100.007V123.047C238.371 134.168 240.434 135.797 240.434 135.797L227.344 138.89C226.62 137.383 226.031 135.814 225.586 134.203C225.586 134.203 222.715 141.445 212.801 143.765C202.406 146.226 196.898 139.781 196.898 130.875L196.875 130.91ZM224.215 114.468C221.984 116.018 219.633 117.385 217.184 118.558C212.813 120.691 210.832 123.328 210.832 127.382C210.832 130.898 213.012 133.242 216.961 132.234C221.215 131.156 224.156 127.195 224.156 121.687L224.215 114.468Z" fill="#231F20"/>
<path d="M20.2265 206.368C18.7185 206.382 17.2349 205.986 15.9344 205.222C14.634 204.459 13.5655 203.356 12.8433 202.032C12.1212 200.708 11.7724 199.213 11.8344 197.706C11.8964 196.199 12.3668 194.737 13.1953 193.477L13.2773 193.36H13.4414L33.0234 188.743V203.614L32.7187 203.684C28.2773 204.75 22.9687 205.969 21.8789 206.204C21.3161 206.321 20.7427 206.38 20.1679 206.379" fill="#231F20"/>
<path d="M20.2265 225.398C18.7153 225.42 17.2267 225.029 15.9214 224.268C14.6161 223.506 13.5437 222.402 12.82 221.075C12.0962 219.748 11.7487 218.249 11.8148 216.739C11.881 215.229 12.3583 213.766 13.1953 212.507L13.2773 212.367H13.4414L33.0234 207.75V222.656L32.7187 222.738C28.2773 223.804 22.9687 225.082 21.8789 225.246C21.3157 225.359 20.7424 225.414 20.1679 225.41" fill="#231F20"/>
<path d="M20.2266 244.464C18.0229 244.461 15.9101 243.585 14.3508 242.028C12.7914 240.471 11.9125 238.359 11.9063 236.156C11.9026 234.548 12.3713 232.976 13.2539 231.632L13.336 231.48L33.082 226.792V241.664L32.7774 241.746C28.0899 242.917 22.875 244.089 21.9375 244.265C21.3735 244.372 20.8007 244.427 20.2266 244.429" fill="#231F20"/>
<path d="M17.918 188.145L17.9062 104.918L33.082 101.333V184.559L17.918 188.145Z" fill="#231F20"/>
<path d="M55.7109 181.066C55.7109 178.58 54.7232 176.195 52.9651 174.437C51.2069 172.679 48.8223 171.691 46.3359 171.691C43.8495 171.691 41.465 172.679 39.7068 174.437C37.9487 176.195 36.9609 178.58 36.9609 181.066V181.066V258.855C36.9733 265.572 39.6462 272.011 44.3946 276.761C49.143 281.512 55.5801 284.188 62.2969 284.203H88.8047V251.719C88.8047 233.988 88.8047 215.941 88.8047 215.52C88.8074 213.504 88.3125 211.519 87.364 209.74C86.4154 207.962 85.0426 206.445 83.3672 205.324L59.7656 189.281V225.715C59.7656 226.249 59.5533 226.762 59.1753 227.14C58.7973 227.518 58.2846 227.73 57.75 227.73C57.2154 227.73 56.7027 227.518 56.3247 227.14C55.9467 226.762 55.7344 226.249 55.7344 225.715C55.7344 225.316 55.7344 185.871 55.7344 181.066" fill="#231F20"/>
<path d="M68.3555 123.047C65.4842 123.712 62.7903 124.989 60.4583 126.791C58.1263 128.593 56.2111 130.878 54.8438 133.489V127.629L41.1797 130.864V168.211C43.5754 167.263 46.1869 166.997 48.7248 167.441C51.2627 167.886 53.628 169.024 55.5586 170.731V146.602C55.5586 140.824 58.4414 136.207 62.5898 135.305C65.6836 134.625 68.2617 135.727 68.2617 141.235V176.391L82.6523 173.016V135.821C82.6523 126.797 79.1367 120.481 68.3672 123.024" fill="#231F20"/>
<path d="M277.453 69.75C275.694 69.7523 273.974 69.2329 272.51 68.2575C271.046 67.2821 269.904 65.8945 269.228 64.2701C268.553 62.6457 268.375 60.8575 268.716 59.1317C269.056 57.4059 269.901 55.8199 271.144 54.5744C272.386 53.3288 273.97 52.4796 275.695 52.1341C277.42 51.7887 279.208 51.9625 280.834 52.6335C282.461 53.3046 283.851 54.4428 284.83 55.9042C285.81 57.3656 286.334 59.0846 286.336 60.8437V60.8437C286.337 62.0112 286.109 63.1676 285.663 64.2466C285.217 65.3257 284.563 66.3063 283.738 67.1324C282.913 67.9585 281.934 68.6139 280.855 69.061C279.777 69.5081 278.621 69.7383 277.453 69.7383V69.75ZM277.453 53.0742C275.914 53.0742 274.409 53.5309 273.129 54.3864C271.849 55.2419 270.852 56.4579 270.263 57.8804C269.674 59.3029 269.521 60.8681 269.822 62.3778C270.123 63.8876 270.866 65.274 271.955 66.3618C273.045 67.4495 274.432 68.1897 275.942 68.4886C277.452 68.7875 279.017 68.6318 280.439 68.041C281.861 67.4503 283.075 66.4511 283.929 65.17C284.782 63.8888 285.237 62.3832 285.234 60.8437C285.234 59.8224 285.033 58.8112 284.642 57.8678C284.251 56.9244 283.677 56.0673 282.955 55.3457C282.232 54.6241 281.374 54.052 280.43 53.6623C279.486 53.2725 278.474 53.0727 277.453 53.0742" fill="#231F20"/>
<path d="M274.219 55.5585H278.051C278.711 55.4896 279.372 55.6852 279.888 56.1026C280.404 56.52 280.734 57.125 280.805 57.7851C280.828 57.9718 280.828 58.1608 280.805 58.3476C280.805 59.7538 280.184 60.8436 278.988 61.0311C280.066 61.1483 280.641 61.7343 280.688 63.2694C280.688 63.9491 280.687 64.8046 280.758 65.4726C280.763 65.6585 280.813 65.8406 280.902 66.0036C280.992 66.1666 281.119 66.3059 281.273 66.4101H279.316C279.127 66.1254 279.025 65.7912 279.023 65.4491C279.023 64.7929 279.023 64.1835 278.941 63.3983C278.941 62.2265 278.555 61.6991 277.359 61.6991H275.941V66.3866H274.219V55.5585ZM277.336 60.3983C277.544 60.4177 277.755 60.3958 277.955 60.3338C278.155 60.2718 278.341 60.171 278.502 60.0371C278.663 59.9032 278.796 59.7389 278.894 59.5536C278.991 59.3682 279.051 59.1655 279.07 58.9569C279.082 58.8518 279.082 58.7457 279.07 58.6405C279.07 57.4686 278.566 56.871 277.43 56.871H275.941V60.3866L277.336 60.3983Z" fill="#231F20"/>
</svg>
