<svg width="301" height="76" viewBox="0 0 301 76" fill="none" xmlns="http://www.w3.org/2000/svg">
<path d="M6.34989 6.16547H68.8897V29.6961C68.8875 32.0349 68.2137 34.3239 66.9485 36.2909C65.6833 38.258 63.8799 39.8203 61.7526 40.7922C59.6253 41.7641 57.2636 42.1048 54.9484 41.7736C52.6332 41.4424 50.4618 40.4533 48.6923 38.924C47.5185 40.4564 46.7911 42.2836 46.5906 44.2035C49.2338 46.0503 52.3329 47.137 55.5506 47.3454C58.7684 47.5537 61.9817 46.8757 64.8411 45.3851C67.7004 43.8946 70.0963 41.6485 71.7681 38.8913C73.44 36.134 74.3237 32.9711 74.3233 29.7466V0.730469H0.867188V29.6948C0.876494 31.4854 1.1523 33.2648 1.68551 34.9743C2.91535 32.9521 4.49467 31.1644 6.34989 29.6948V6.16547Z" fill="black"/>
<path d="M39.0518 29.7004C39.0571 31.4914 39.333 33.2713 39.8701 34.9799C41.0999 32.9576 42.6792 31.17 44.5345 29.7004C44.5365 27.2123 45.2985 24.7842 46.7186 22.7411C48.1386 20.698 50.1489 19.1375 52.4803 18.2685C52.9294 19.2041 53.7002 19.9468 54.6518 20.361C55.6034 20.7752 56.6722 20.8332 57.663 20.5243C58.3886 20.3024 59.0419 19.8909 59.5554 19.3323C60.069 18.7737 60.4242 18.0882 60.5844 17.3465C61.6613 16.9977 62.5571 16.2381 63.0772 15.2327C63.5973 14.2272 63.6997 13.0572 63.3622 11.9767C63.0247 10.8962 62.2745 9.99252 61.2745 9.46193C60.2746 8.93134 59.1057 8.81668 58.0217 9.1429C57.4719 8.62035 56.7895 8.25822 56.0486 8.0957C55.3077 7.93319 54.5364 7.97649 53.8183 8.22094C52.8253 8.53101 51.9776 9.1893 51.4313 10.0746C50.885 10.96 50.6769 12.0128 50.8451 13.0394C47.397 14.2546 44.411 16.5099 42.2992 19.4941C40.1873 22.4784 39.0536 26.0444 39.0545 29.7004H39.0518Z" fill="black"/>
<path d="M139.539 33.7198L141.258 32.0504C140.718 31.4448 139.997 30.962 139.097 30.602C138.214 30.2419 137.273 30.0619 136.274 30.0619C135.259 30.0619 134.31 30.2256 133.426 30.5529C132.559 30.8802 131.823 31.4367 131.217 32.2222C130.611 32.9915 130.309 33.9243 130.309 35.0209C130.309 35.7737 130.431 36.4366 130.677 37.0094C130.922 37.5822 131.282 38.0568 131.757 38.4333C132.248 38.7933 132.714 39.0797 133.156 39.2925C133.615 39.4889 134.171 39.6935 134.826 39.9062C135.431 40.0863 135.865 40.2254 136.127 40.3236C136.405 40.4218 136.765 40.5773 137.207 40.79C137.649 40.9864 137.968 41.1828 138.164 41.3792C138.361 41.5756 138.541 41.8375 138.705 42.1648C138.868 42.4921 138.95 42.8604 138.95 43.2695C138.95 44.2188 138.598 44.9552 137.894 45.479C137.191 45.9863 136.381 46.24 135.464 46.24C134.678 46.24 133.934 46.0518 133.23 45.6754C132.543 45.2989 131.994 44.8079 131.585 44.2024L129.695 45.7981C130.333 46.6164 131.16 47.2465 132.174 47.6884C133.205 48.1139 134.286 48.3267 135.415 48.3267C137.084 48.3267 138.5 47.8766 139.662 46.9765C140.84 46.06 141.43 44.7507 141.43 43.0486C141.43 42.3775 141.315 41.7802 141.086 41.2565C140.873 40.7327 140.619 40.3154 140.325 40.0044C140.047 39.6771 139.637 39.3661 139.097 39.0716C138.557 38.777 138.115 38.5724 137.772 38.4578C137.444 38.3269 136.962 38.1632 136.323 37.9668C135.685 37.7541 135.21 37.5904 134.899 37.4758C134.588 37.3449 134.237 37.1649 133.844 36.9357C133.451 36.6903 133.173 36.412 133.009 36.1011C132.845 35.7737 132.764 35.3809 132.764 34.9227C132.764 34.0062 133.107 33.3106 133.795 32.836C134.482 32.345 135.268 32.0995 136.151 32.0995C136.855 32.0995 137.502 32.2468 138.091 32.5414C138.696 32.836 139.179 33.2288 139.539 33.7198Z" fill="black"/>
<path d="M95.0493 30.5038L100.254 43.8587H100.303L105.434 30.5038H109.214V47.8848H106.784V33.3515H106.735L100.966 47.8848H99.4191L93.6745 33.3515H93.6254V47.8848H91.2686V30.5038H95.0493Z" fill="black"/>
<path fill-rule="evenodd" clip-rule="evenodd" d="M115.9 43.6132L114.157 47.8848H111.456L118.993 30.5038H121.202L128.665 47.8848H125.916L124.148 43.6132H115.9ZM120.024 33.327L116.759 41.4774H123.264L120.024 33.327Z" fill="black"/>
<path d="M157.837 43.8587L159.776 45.1844C158.238 47.2793 156.028 48.3267 153.148 48.3267C150.48 48.3267 148.287 47.4675 146.569 45.749C144.85 44.0305 143.991 41.8375 143.991 39.1698C143.991 36.4857 144.867 34.3008 146.618 32.615C148.369 30.9129 150.578 30.0619 153.246 30.0619C154.49 30.0619 155.685 30.2992 156.83 30.7738C157.976 31.2485 158.86 31.9113 159.482 32.7623L157.567 34.2353C157.141 33.6297 156.536 33.1388 155.75 32.7623C154.965 32.3859 154.13 32.1977 153.246 32.1977C151.282 32.1977 149.686 32.8687 148.459 34.2108C147.248 35.5528 146.642 37.2058 146.642 39.1698C146.642 41.1664 147.24 42.8358 148.434 44.1778C149.629 45.5035 151.208 46.1664 153.172 46.1664C155.218 46.1664 156.773 45.3971 157.837 43.8587Z" fill="black"/>
<path fill-rule="evenodd" clip-rule="evenodd" d="M176.87 45.749C178.621 44.0305 179.497 41.8375 179.497 39.1698C179.497 36.4857 178.621 34.3008 176.87 32.615C175.135 30.9129 172.934 30.0619 170.266 30.0619C167.598 30.0619 165.397 30.9129 163.662 32.615C161.944 34.3008 161.084 36.4857 161.084 39.1698C161.084 41.8375 161.952 44.0305 163.687 45.749C165.422 47.4675 167.615 48.3267 170.266 48.3267C172.934 48.3267 175.135 47.4675 176.87 45.749ZM175.053 34.2108C176.264 35.5528 176.87 37.2058 176.87 39.1698C176.87 41.1501 176.264 42.8113 175.053 44.1533C173.842 45.479 172.246 46.1418 170.266 46.1418C168.318 46.1418 166.739 45.479 165.528 44.1533C164.317 42.8113 163.711 41.1501 163.711 39.1698C163.711 37.2058 164.317 35.5528 165.528 34.2108C166.739 32.8687 168.318 32.1977 170.266 32.1977C172.246 32.1977 173.842 32.8687 175.053 34.2108Z" fill="black"/>
<path d="M188.147 32.6396V47.8848H185.716V32.6396H180.144V30.5038H193.72V32.6396H188.147Z" fill="black"/>
<path d="M214.683 34.088L216.377 32.3204C214.822 30.8147 212.678 30.0619 209.945 30.0619C207.277 30.0619 205.068 30.9129 203.316 32.615C201.565 34.3008 200.69 36.4857 200.69 39.1698C200.69 41.8538 201.557 44.0551 203.292 45.7736C205.027 47.4757 207.253 48.3267 209.969 48.3267C212.441 48.3267 214.617 47.8194 216.5 46.8046V38.3842H210.239V40.4463H214.094V45.2826C213.03 45.8554 211.68 46.1418 210.043 46.1418C208.014 46.1418 206.385 45.479 205.158 44.1533C203.947 42.8276 203.341 41.1664 203.341 39.1698C203.341 37.2058 203.947 35.5528 205.158 34.2108C206.385 32.8687 207.989 32.1977 209.969 32.1977C211.966 32.1977 213.537 32.8278 214.683 34.088Z" fill="black"/>
<path fill-rule="evenodd" clip-rule="evenodd" d="M223.136 43.6132L221.393 47.8848H218.692L226.229 30.5038H228.438L235.901 47.8848H233.152L231.384 43.6132H223.136ZM227.26 33.327L223.995 41.4774H230.501L227.26 33.327Z" fill="black"/>
<path d="M247.119 43.8587L241.915 30.5038H238.134V47.8848H240.491V33.3515H240.54L246.284 47.8848H247.831L253.6 33.3515H253.649V47.8848H256.08V30.5038H252.299L247.168 43.8587H247.119Z" fill="black"/>
<path d="M262.74 30.5038V47.8848H260.31V30.5038H262.74Z" fill="black"/>
<path d="M279.225 44.3988L270.142 30.5038H266.975V47.8848H269.405V33.6952H269.454L278.636 47.8848H281.704V30.5038H279.274V44.3988H279.225Z" fill="black"/>
<path d="M300.742 32.3204L299.048 34.088C297.902 32.8278 296.331 32.1977 294.334 32.1977C292.354 32.1977 290.75 32.8687 289.523 34.2108C288.311 35.5528 287.706 37.2058 287.706 39.1698C287.706 41.1664 288.311 42.8276 289.523 44.1533C290.75 45.479 292.378 46.1418 294.408 46.1418C296.045 46.1418 297.395 45.8554 298.459 45.2826V40.4463H294.604V38.3842H300.864V46.8046C298.982 47.8194 296.806 48.3267 294.334 48.3267C291.617 48.3267 289.392 47.4757 287.657 45.7736C285.922 44.0551 285.055 41.8538 285.055 39.1698C285.055 36.4857 285.93 34.3008 287.681 32.615C289.433 30.9129 291.642 30.0619 294.31 30.0619C297.043 30.0619 299.187 30.8147 300.742 32.3204Z" fill="black"/>
<path d="M39.0516 45.1838C39.0516 41.9595 39.9357 38.7969 41.6076 36.0399C43.2796 33.283 45.6754 31.0371 48.5345 29.5467C51.3937 28.0562 54.6067 27.3781 57.8243 27.5862C61.0419 27.7943 64.1409 28.8806 66.7843 30.7269C66.5842 32.6474 65.8568 34.475 64.6826 36.0078C63.3325 34.8381 61.7421 33.9792 60.0237 33.4915C58.3053 33.0038 56.5008 32.8992 54.7376 33.1853C52.9744 33.4713 51.2954 34.1409 49.8193 35.1468C48.3432 36.1527 47.106 37.4704 46.1948 39.0068C45.2837 40.5432 44.721 42.2609 44.5464 44.0386C44.3718 45.8163 44.5895 47.6107 45.1843 49.295C45.779 50.9794 46.7363 52.5126 47.9884 53.7865C49.2406 55.0604 50.7572 56.0439 52.431 56.6675C52.8801 55.7319 53.6509 54.9892 54.6025 54.575C55.554 54.1608 56.6229 54.1028 57.6137 54.4117C58.3394 54.6335 58.9927 55.0449 59.5062 55.6035C60.0198 56.1622 60.375 56.8477 60.5351 57.5895C61.6227 57.9293 62.5309 58.6873 63.0597 59.6967C63.5885 60.7061 63.6947 61.8843 63.3548 62.972C63.015 64.0596 62.257 64.9678 61.2476 65.4966C60.2382 66.0254 59.0601 66.1316 57.9724 65.7917C57.4228 66.3148 56.7405 66.6774 55.9995 66.8401C55.2585 67.0029 54.4871 66.9597 53.7689 66.7151C52.7762 66.4047 51.9288 65.7464 51.3828 64.861C50.8368 63.9757 50.6288 62.923 50.7971 61.8965C47.3658 60.6463 44.4005 58.3738 42.3012 55.3856C40.2019 52.3973 39.0696 48.8371 39.057 45.1852L39.0516 45.1838Z" fill="black"/>
<path d="M35.3644 39.9023C35.9015 41.6108 36.1774 43.3908 36.1827 45.1818L36.1799 45.1804C36.1735 48.8346 35.0369 52.3973 32.926 55.3801C30.8152 58.3629 27.8334 60.6198 24.3894 61.8413C24.5576 62.868 24.3494 63.9208 23.8032 64.8062C23.2569 65.6915 22.4092 66.3498 21.4162 66.6598C20.6982 66.9047 19.9268 66.9483 19.1857 66.7858C18.4447 66.6232 17.7624 66.2608 17.2128 65.7379C16.6742 65.9062 16.1077 65.9669 15.5457 65.9163C14.9837 65.8657 14.4372 65.705 13.9373 65.4432C13.4374 65.1814 12.994 64.8238 12.6324 64.3906C12.2707 63.9575 11.9979 63.4574 11.8296 62.9188C11.6612 62.3802 11.6006 61.8138 11.6512 61.2518C11.7017 60.6898 11.8625 60.1432 12.1243 59.6433C12.386 59.1435 12.7437 58.7 13.1768 58.3384C13.61 57.9768 14.1101 57.704 14.6487 57.5356C14.8088 56.7936 15.1641 56.1079 15.6779 55.5493C16.1918 54.9906 16.8455 54.5793 17.5715 54.3578C18.5621 54.0486 19.6309 54.1062 20.5825 54.5202C21.5341 54.9341 22.305 55.6767 22.7541 56.6123C25.0853 55.7433 27.0955 54.1831 28.5155 52.1403C29.9356 50.0975 30.6977 47.6697 30.7 45.1818C32.555 43.7119 34.1343 41.9243 35.3644 39.9023Z" fill="black"/>
<path d="M36.1852 29.6962C36.1861 26.0403 35.0524 22.4743 32.9406 19.49C30.8287 16.5058 27.8427 14.2505 24.3947 13.0353C24.5762 12.0073 24.3735 10.9484 23.8254 10.06C23.2772 9.17165 22.4216 8.51568 21.4214 8.21683C20.7005 7.99717 19.9353 7.96659 19.1992 8.12805C18.463 8.28951 17.7808 8.63758 17.218 9.13879C16.134 8.81257 14.9651 8.92723 13.9652 9.45782C12.9652 9.98841 12.2151 10.8921 11.8775 11.9726C11.54 13.0531 11.6424 14.2231 12.1625 15.2285C12.6826 16.234 13.5784 16.9936 14.6553 17.3424C14.8505 18.2181 15.3139 19.011 15.9809 19.6109C16.648 20.2107 17.4855 20.5876 18.3768 20.6891C19.2682 20.7906 20.169 20.6115 20.9538 20.1769C21.7386 19.7423 22.3683 19.0738 22.7553 18.2644C24.428 18.8888 25.9433 19.8726 27.1943 21.1465C28.4453 22.4204 29.4015 23.9532 29.9954 25.637C30.5894 27.3207 30.8066 29.1142 30.6318 30.8911C30.457 32.6679 29.8944 34.3848 28.9837 35.9205C28.073 37.4562 26.8364 38.7733 25.3611 39.779C23.8859 40.7846 22.2079 41.4543 20.4456 41.7407C18.6833 42.0272 16.8796 41.9234 15.1618 41.4367C13.444 40.9501 11.8539 40.0924 10.5037 38.9242C9.28858 40.4328 8.55621 42.2726 8.40203 44.2037C11.0524 46.0526 14.159 47.1395 17.384 47.3461C20.609 47.5526 23.8289 46.871 26.6935 45.3753C29.5581 43.8795 31.9577 41.627 33.6315 38.8626C35.3052 36.0983 36.189 32.9278 36.1866 29.6962H36.1852Z" fill="black"/>
<path d="M3.47013 36.0356C1.7982 38.7926 0.914129 41.9551 0.914062 45.1795H0.911315V75.6713H74.3702V45.2299C74.3609 43.4392 74.0851 41.6599 73.5519 39.9504C72.3218 41.9725 70.7425 43.76 68.8875 45.2299V68.7592H6.34494V45.2299C6.3467 42.8906 7.02029 40.601 8.28564 38.6335C9.55099 36.666 11.3548 35.1033 13.4826 34.1312C15.6104 33.1592 17.9726 32.8188 20.2883 33.1504C22.604 33.4821 24.7757 34.4719 26.5451 36.002C27.719 34.4696 28.4463 32.6425 28.6468 30.7225C26.0034 28.8762 22.9045 27.79 19.6869 27.5819C16.4693 27.3738 13.2562 28.0519 10.397 29.5423C7.53787 31.0328 5.14207 33.2786 3.47013 36.0356Z" fill="black"/>
</svg>
