<svg width="300" height="81" viewBox="0 0 300 81" fill="none" xmlns="http://www.w3.org/2000/svg">
<path d="M75.7555 76.967C74.4218 77.4807 73.0121 77.7707 71.5836 77.8254C68.8468 77.8234 67.4808 76.008 67.486 72.3801C67.486 70.6232 67.8453 69.2648 68.5602 68.2805C69.2469 67.3277 70.4162 66.7599 71.5914 66.8127C72.8876 66.8249 74.1054 67.3547 75.2594 67.8986L76.3727 65.0832C74.888 64.3373 73.2533 63.9374 71.5914 63.9123C68.793 63.8471 66.0529 65.2967 64.8453 67.8752C64.2013 69.2699 63.8768 70.8047 63.9039 72.341C63.8937 75.0373 64.5226 77.1066 65.7907 78.548C67.059 79.9894 68.882 80.7111 71.2594 80.7111C72.7994 80.7316 74.328 80.4455 75.7555 79.8674V76.967Z" fill="black"/>
<path d="M119.298 64.1506H122.763V80.4846H119.298V64.1506Z" fill="black"/>
<path d="M177.689 64.1506V67.0353H173.248V80.4846H169.787V67.0353H165.349V64.1506H177.689Z" fill="black"/>
<path d="M227.08 74.1291L232.505 64.1506H228.771L225.361 70.8732L221.974 64.1506H218.216L223.638 74.2385V80.4846H227.08V74.1291Z" fill="black"/>
<path d="M237.109 20.744H229.48C228.813 20.744 228.699 20.6464 228.629 20.0253C228.481 18.5096 228.085 17.0292 227.457 15.6415C225.938 12.3778 223.348 10.5897 219.82 10.1756C215.094 9.56589 210.049 11.4546 208.102 16.0438C207.565 17.2753 207.212 18.578 207.055 19.912C207.009 20.2378 207.071 20.6994 206.629 20.7284H198.152C197.717 20.7602 197.722 20.268 197.676 19.9761C197.349 17.9231 196.681 15.9638 195.523 14.2206C193.894 11.7404 191.087 10.1829 188.121 10.1102C186.78 10.0155 185.433 10.118 184.121 10.4139C180.746 11.2381 178.441 13.3026 177.125 16.4842C176.655 17.5907 176.352 18.7606 176.227 19.9549C176.148 20.7362 176.137 20.7362 175.305 20.7362H167.449C166.998 20.7362 166.902 20.6314 166.949 20.1463C166.996 19.662 167.07 19.0926 167.16 18.5848C167.7 15.1893 168.946 11.9452 170.816 9.05943C174.539 3.44564 180.853 0.765111 187.434 0.833845C191.94 0.833845 196.113 2.7337 199.322 5.82896C200.164 6.64097 200.946 7.51616 201.66 8.44713C201.855 8.69224 202.051 8.94615 202.246 9.19224C202.343 9.35639 202.588 9.35567 202.684 9.19224C202.914 8.92271 203.137 8.64927 203.359 8.37681C204.505 6.93931 205.816 5.64146 207.266 4.51158C210.273 2.16783 213.968 0.875837 217.781 0.833845C224.253 0.645397 230.652 3.4459 234.129 9.07506C235.859 11.8368 237.032 14.909 237.582 18.12C237.695 18.745 237.773 19.3778 237.844 20.0096C237.914 20.744 237.891 20.744 237.109 20.744Z" fill="#FBF800"/>
<path d="M92.8789 31.8465C92.1079 34.829 90.761 37.6327 88.9141 40.0995C84.7484 45.5079 78.0964 47.9962 71.4219 48.1092C60.5603 48.536 50.6179 42.4889 47.7844 31.5272C47.1062 28.9024 47.109 26.3738 47.094 23.6717C47.0761 23.4449 47.266 23.276 47.4846 23.2811H55.762C56.2502 23.2811 56.3284 23.3631 56.3362 23.828L56.3308 24.5702C56.3087 26.7008 56.4792 28.7816 57.2581 30.7919C58.9463 35.2684 63.1282 38.3206 67.8557 38.744C74.9197 39.5436 81.6894 36.3044 83.9336 29.203C84.3891 27.6731 84.3445 26.1563 84.3672 24.5848C84.3711 24.3133 84.375 24.0419 84.375 23.7694C84.375 23.4061 84.4727 23.3006 84.7969 23.3006H93.1719C93.4961 23.3006 93.5625 23.3983 93.5859 23.7733C93.6797 26.4784 93.6172 29.1874 92.8789 31.8465Z" fill="#FBF800"/>
<path d="M93.0547 20.744C93.4648 20.744 93.5625 20.6424 93.543 20.2528C93.5232 19.9341 93.4803 19.6191 93.4336 19.3036C92.6914 14.9509 90.7509 10.7994 87.7656 7.53404C82.9015 2.35089 75.7111 0.484891 68.7852 0.873884C62.0543 1.11604 55.482 3.81758 51.418 9.37584C49.0833 12.5963 47.7517 16.2996 47.1289 20.1981C47.0585 20.6471 47.1534 20.7557 47.6445 20.7557H55.8086C56.2638 20.7557 56.2966 20.7261 56.3867 20.1942C56.634 18.6589 57.186 17.1749 58.0039 15.8524C59.6328 13.2215 62.0156 11.6288 64.9414 10.7782C67.167 10.1913 69.4734 9.97447 71.7695 10.1336C73.5056 10.201 75.22 10.5448 76.8477 11.1522C80.897 12.7137 83.3594 15.62 84.2344 19.87C84.375 20.6156 84.6262 20.744 85.2109 20.744H93.0547Z" fill="#FBF800"/>
<path d="M37.6719 20.1151C37.6719 20.6776 37.6178 20.7353 37.0859 20.7557H28.8203C28.6121 20.779 28.4081 20.5773 28.4297 20.3651C28.4185 19.6571 28.344 18.952 28.207 18.2577C27.9375 16.6854 27.3064 15.1981 26.3633 13.912C24.8672 11.9061 22.8008 10.8553 20.4023 10.3993C19.5707 10.2289 18.724 10.1437 17.875 10.1454H9.60547C9.51709 10.1473 9.43066 10.1874 9.37109 10.2518C9.31201 10.3182 9.28174 10.4081 9.28906 10.496V19.8153C9.28906 20.2147 9.28906 20.4471 9.22168 20.5819C9.12842 20.7674 8.90601 20.7674 8.37524 20.7674H0.945312C0.730225 20.7743 0.514893 20.7665 0.300781 20.744C0.157887 20.7381 0.0332102 20.6133 0.0273438 20.4706C0.00116989 20.2176 0.0019458 19.9638 0 19.7098V1.88463C0.00771439 1.29576 0.0639555 1.06424 0.689209 1.06041H9.92578C12.4688 1.06041 15.0117 1.09139 17.5547 1.06041C19.2508 1.03198 20.9414 1.25052 22.5742 1.70884C25.5608 2.47349 28.3628 3.83189 30.8125 5.70201C34.9476 8.88624 37.8797 14.6897 37.6719 20.1151Z" fill="#FBF800"/>
<path d="M132.812 40.0526C132.817 38.9438 132.682 38.8472 131.578 38.8387H114.055C113.843 38.8374 113.5 38.8252 113.37 38.7157C113.262 38.5382 113.26 37.8985 113.262 37.5741C113.262 33.0942 113.398 28.5914 113.25 24.1141C113.244 23.9374 113.238 23.7616 113.238 23.5858C113.239 23.4019 113.074 23.2501 112.891 23.2704H105.258C103.969 23.2743 104.086 23.1649 104.086 24.4764V47.0487C104.086 47.3068 104.024 47.6722 104.135 47.9169C104.191 48.0396 104.318 48.1153 104.453 48.1063H132.469C132.645 48.118 132.812 47.9603 132.812 47.786V40.0526Z" fill="#FBF800"/>
<path d="M300 9.76158C299.996 9.86769 299.949 9.95643 299.871 10.0253C299.723 10.117 299.123 10.117 298.809 10.117H290.324C289.76 10.117 289.534 10.117 289.444 10.3211C289.384 10.4549 289.383 10.6766 289.383 11.0428V20.2674C289.383 20.6576 289.298 20.7518 288.859 20.7518H280.586C280.393 20.7762 280.237 20.652 280.182 20.4774C280.168 20.1218 280.145 19.7641 280.145 19.4081V10.8358C280.125 10.1678 280.098 10.121 279.406 10.121H270.707C269.829 10.121 269.449 10.1754 269.288 10.0135C269.127 9.8524 269.184 9.47545 269.18 8.61412V2.0399C269.18 1.75833 269.183 1.47794 269.203 1.19713C269.194 1.01677 269.352 0.857233 269.531 0.861189H298.699C298.898 0.861189 299.096 0.861189 299.296 0.866071C299.553 0.875079 299.992 0.83382 300 1.20103V9.76158Z" fill="#FBF800"/>
<path d="M258.516 47.2899V47.1883C258.513 39.5604 258.514 31.9295 258.52 24.2967C258.52 23.9904 258.667 23.2381 258.129 23.2381H250.18C249.249 23.2342 249.249 23.244 249.253 24.0008L249.254 24.1717V47.579C249.27 48.0165 249.344 48.0907 249.734 48.1141H257.68C258.516 48.1102 258.516 48.1024 258.516 47.2899Z" fill="#FBF800"/>
<path d="M237.441 48.1053H229.598C228.579 48.1053 228.668 47.9097 228.668 46.8563V24.1864C228.668 23.2022 228.584 23.2264 229.664 23.2264H236.875C237.971 23.2264 237.918 23.3817 237.918 24.4794V47.1493C237.937 47.617 237.997 48.0506 237.441 48.1053Z" fill="#FBF800"/>
<path d="M198.699 48.117H206.293C207.069 48.1148 207.03 48.0544 207.023 47.0477V24.4833C207.023 23.5864 207.133 23.2519 206.237 23.2342H198.785C197.757 23.2342 197.757 23.2479 197.761 24.119L197.762 24.3075V47.1883C197.778 47.9715 197.868 48.1135 198.699 48.117Z" fill="#FBF800"/>
<path d="M154.152 47.5126C154.129 48.0506 154.082 48.1131 153.523 48.1131H145.359C144.969 48.0897 144.898 48.0155 144.883 47.5868V24.0614C144.883 23.2538 144.883 23.242 145.715 23.2381H153.77C153.877 23.2381 153.984 23.285 154.057 23.3631C154.133 23.4462 154.164 23.5502 154.16 23.66L154.152 47.5126Z" fill="#FBF800"/>
<path d="M8.47656 47.7665C9.11783 47.7665 9.25391 47.4922 9.25391 46.6922V23.5936C9.25576 23.4158 9.08959 23.2577 8.91406 23.2655C8.66797 23.242 8.42188 23.242 8.17188 23.242H0.554688C0.212446 23.2639 0.0273438 23.3601 0.0273438 23.7342V47.3758C0.0273438 47.6415 0.179688 47.7665 0.417969 47.7665H8.47656Z" fill="#FBF800"/>
<path d="M37.0547 48.1141H29.0039C28.3133 48.0887 28.4177 47.6428 28.4062 47.0555V24.5067C28.4062 23.7092 28.5624 23.578 29.3438 23.578H37.1914C37.582 23.578 37.6523 23.6795 37.6719 24.1053V46.7626C37.6906 47.3805 37.6719 48.1141 37.0547 48.1141Z" fill="#FBF800"/>
<path d="M176.117 47.7626L176.125 23.6952C176.098 23.367 176.008 23.2694 175.652 23.2694H167.805C166.787 23.2694 166.934 23.5089 166.934 24.5809V47.5711C166.949 48.035 167.004 48.0819 167.512 48.1014H175.781C175.972 48.0845 176.107 47.9565 176.117 47.7626Z" fill="#FBF800"/>
<path d="M288.359 48.117H280.516C280.33 48.1211 280.176 47.9618 280.18 47.7782V24.5692C280.18 23.275 280.069 23.2739 281.103 23.287L281.508 23.2889H288.188L288.603 23.2909C288.867 23.2962 289.385 23.2449 289.359 23.6483V47.0711C289.367 48.1733 289.417 48.117 288.359 48.117Z" fill="#FBF800"/>
<path d="M257.879 20.7547C258.688 20.749 258.527 20.022 258.508 19.4159V1.39244C258.489 0.942552 258.34 0.850333 257.938 0.841657H249.773C249.344 0.869001 249.277 0.94322 249.254 1.33384V20.2049C249.273 20.6766 249.344 20.7547 249.82 20.7547H257.879Z" fill="#FBF800"/>
<path d="M145.906 20.744C144.73 20.744 144.899 20.5348 144.883 19.5878V1.77427C144.883 1.29185 144.883 1.05455 145.001 0.938337C145.116 0.826032 145.34 0.826032 145.782 0.826032H153.227C154.101 0.836495 154.148 0.962788 154.148 1.87974V19.7049C154.154 20.5419 154.106 20.7459 153.234 20.744H145.906Z" fill="#FBF800"/>
<path d="M113.281 19.8026V1.24791C113.288 1.14148 113.249 1.03478 113.176 0.955915C113.102 0.879305 112.997 0.833845 112.891 0.833845L105.273 0.845564C104.638 0.845564 104.344 0.819196 104.21 0.952009C104.073 1.08873 104.102 1.39244 104.102 2.06334V20.3924C104.097 20.4802 104.128 20.5691 104.188 20.6356C104.247 20.7 104.334 20.7392 104.422 20.743H112.375C113.281 20.743 113.281 20.743 113.281 19.8026Z" fill="#FBF800"/>
</svg>
