<svg width="301" height="68" viewBox="0 0 301 68" fill="none" xmlns="http://www.w3.org/2000/svg"><path d="M54.88 27.82c0 14.993-12.443 26.912-27.436 26.912C12.452 54.732.008 42.813.008 27.821.008 12.828 12.452.909 27.444.909c14.993 0 27.436 11.92 27.436 26.912Zm-42.129 0c0 7.872 6.597 15.218 14.693 15.218s14.693-7.346 14.693-15.217c0-7.872-6.597-15.218-14.693-15.218S12.751 19.95 12.751 27.821Z" fill="url(#a)"/><path d="M70.698 19.5h.15c2.998-4.498 6.821-5.847 10.044-5.847 10.57 0 14.093 6.746 14.093 16.341v22.939l-11.694 1.2V30.818c0-4.498-2.324-6.672-5.847-6.672-3.523 0-5.847 2.174-5.847 6.672v22.114l-11.694 1.2v-39.28l10.795-1.2V19.5Z" fill="url(#b)"/><path d="M114.551.084v52.849l-11.695 1.2V1.282L114.551.085Z" fill="url(#c)"/><path d="m137.864 36.591 9.295-22.938 11.245 2.848-22.714 50.825-12.219-1.2 8.321-16.716-14.693-32.984 11.395-2.773 9.37 22.938Z" fill="url(#d)"/><path d="m170.772 66.126-11.694 1.2V14.852l10.945-1.2V20.7h.15c2.099-4.348 6.896-7.046 11.694-7.046 11.244 0 19.04 10.344 19.04 20.99 0 10.494-9.145 20.09-19.64 20.09-3.823 0-8.246-.975-10.345-4.424h-.15v15.817Zm8.921-21.889c5.472 0 9.52-5.022 9.52-10.045 0-5.022-4.048-10.045-9.52-10.045-5.472 0-9.52 5.023-9.52 10.045 0 5.023 4.048 10.045 9.52 10.045Z" fill="url(#e)"/><path d="M218.673.084v52.849l-11.694 1.2V1.282L218.673.085Z" fill="url(#f)"/><path d="M230.967 15.377c2.999-1.05 7.347-1.724 10.57-1.724 9.595 0 16.192 3.973 16.192 13.493v25.787l-10.195 1.2v-3.824h-.15c-2.249 3.449-5.622 4.423-9.595 4.423-8.696 0-13.418-5.697-13.418-13.943 0-7.796 6.371-12.669 13.793-12.669 2.923 0 6.222 1.125 8.695 2.924.075-.375.075-.75.075-1.2 0-5.322-2.473-6.446-7.496-6.446-3.448 0-6.971.9-10.12 2.324l1.649-10.345Zm10.12 30.36c3.149 0 5.772-1.874 5.772-5.098 0-3.148-2.623-5.022-5.772-5.022-3.223 0-5.847 1.874-5.847 5.022 0 3.224 2.624 5.098 5.847 5.098Z" fill="url(#g)"/><path d="m279.468 36.591 9.295-22.938 11.245 2.848-22.714 50.825-12.219-1.2 8.321-16.716-14.693-32.984 11.395-2.773 9.37 22.938Z" fill="url(#h)"/><defs><linearGradient id="a" x1="820.09" y1="-.947" x2="820.09" y2="83.06" gradientUnits="userSpaceOnUse"><stop stop-color="#FFC000"/><stop offset="1" stop-color="#D200FF"/></linearGradient><linearGradient id="b" x1="770.521" y1="-22.455" x2="770.521" y2="89.242" gradientUnits="userSpaceOnUse"><stop stop-color="#FFC000"/><stop offset="1" stop-color="#D200FF"/></linearGradient><linearGradient id="c" x1="1209.62" y1=".084" x2="1209.62" y2="83.74" gradientUnits="userSpaceOnUse"><stop stop-color="#FFC000"/><stop offset="1" stop-color="#D200FF"/></linearGradient><linearGradient id="d" x1="239.028" y1="-16.915" x2="239.028" y2="67.326" gradientUnits="userSpaceOnUse"><stop stop-color="#FFC000"/><stop offset="1" stop-color="#D200FF"/></linearGradient><linearGradient id="e" x1="-65.046" y1="-16.915" x2="-65.046" y2="67.326" gradientUnits="userSpaceOnUse"><stop stop-color="#FFC000"/><stop offset="1" stop-color="#D200FF"/></linearGradient><linearGradient id="f" x1="-1461.53" y1=".084" x2="-1461.53" y2="83.74" gradientUnits="userSpaceOnUse"><stop stop-color="#FFC000"/><stop offset="1" stop-color="#D200FF"/></linearGradient><linearGradient id="g" x1="-668.756" y1="-22.126" x2="-668.756" y2="87.941" gradientUnits="userSpaceOnUse"><stop stop-color="#FFC000"/><stop offset="1" stop-color="#D200FF"/></linearGradient><linearGradient id="h" x1="150.008" y1=".084" x2="150.008" y2="67.326" gradientUnits="userSpaceOnUse"><stop stop-color="#FFC000"/><stop offset="1" stop-color="#D200FF"/></linearGradient></defs></svg>