<svg width="300" height="68" viewBox="0 0 300 68" fill="none" xmlns="http://www.w3.org/2000/svg">
<path fill-rule="evenodd" clip-rule="evenodd" d="M15.0945 5.7239C20.6797 1.99193 27.2463 0 33.9636 0C38.4238 0 42.8403 0.878495 46.9609 2.58533C51.0816 4.29216 54.8257 6.7939 57.9795 9.94771C61.1334 13.1015 63.6351 16.8456 65.3419 20.9663C67.0488 25.087 67.9273 29.5035 67.9273 33.9636C67.9273 40.681 65.9353 47.2475 62.2034 52.8328C58.4714 58.4181 53.167 62.7713 46.9609 65.3419C40.7549 67.9125 33.926 68.5851 27.3377 67.2746C20.7494 65.9641 14.6976 62.7294 9.94773 57.9795C5.19783 53.2296 1.96311 47.1779 0.652617 40.5896C-0.657877 34.0013 0.0147159 27.1723 2.58534 20.9663C5.15597 14.7603 9.50917 9.45587 15.0945 5.7239ZM30.9813 47.0019L34.5141 35.081L39.9611 33.4953L41.1195 29.5764L35.7218 31.2196L41.4728 11.6416C41.5135 11.4972 41.5201 11.3453 41.4921 11.1979C41.4641 11.0505 41.4023 10.9116 41.3115 10.7921C41.2207 10.6727 41.1034 10.5759 40.9689 10.5095C40.8343 10.443 40.6862 10.4087 40.5362 10.4093H33.2242C32.9427 10.4098 32.669 10.5024 32.445 10.673C32.221 10.8436 32.059 11.0828 31.9837 11.3541L25.1318 34.5059L19.7259 36.149L18.5346 40.0021L23.9323 38.359L19.0522 54.8397H47.9139C48.1954 54.8401 48.4695 54.749 48.6948 54.5801C48.92 54.4111 49.0842 54.1735 49.1626 53.9031L50.8058 48.2425C50.8478 48.0982 50.8557 47.9461 50.8289 47.7983C50.8021 47.6504 50.7412 47.5108 50.6512 47.3905C50.5612 47.2702 50.4444 47.1725 50.3101 47.105C50.1758 47.0376 50.0277 47.0023 49.8774 47.0019H30.9813Z" fill="#A5A8A9"/>
<path d="M124.038 56.5781H118.247V24.2003H124.038V56.5781Z" fill="#A5A8A9"/>
<path d="M121.111 18.3474C120.074 18.3474 119.181 18.0154 118.434 17.3512C117.728 16.6455 117.376 15.7115 117.376 14.5493C117.376 13.387 117.728 12.4738 118.434 11.8096C119.181 11.1039 120.074 10.7511 121.111 10.7511C122.149 10.7511 123.021 11.1039 123.727 11.8096C124.474 12.4738 124.848 13.387 124.848 14.5493C124.848 15.7115 124.474 16.6455 123.727 17.3512C123.021 18.0154 122.149 18.3474 121.111 18.3474Z" fill="#A5A8A9"/>
<path d="M112.298 51.3479V56.5782H86.3333V13.4286H92.3729V51.3479H112.298Z" fill="#A5A8A9"/>
<path d="M151.679 24.2003H139.413V14.1757L133.622 15.1719V44.0628C133.622 46.2214 133.789 48.1308 134.121 49.7912C134.494 51.4101 135.117 52.7799 135.989 53.9006C136.86 55.0216 138.002 55.8724 139.413 56.4534C140.866 56.993 142.692 57.2632 144.892 57.2632C146.76 57.2632 148.421 57.0345 149.874 56.5781C151.326 56.1632 152.343 55.8103 152.924 55.5196L151.804 50.7252C151.389 50.8912 150.641 51.1818 149.562 51.5969C148.524 51.9704 147.134 52.1573 145.39 52.1573C144.394 52.1573 143.523 52.0328 142.775 51.7837C142.028 51.5346 141.406 51.1195 140.908 50.5383C140.409 49.9157 140.036 49.0855 139.787 48.0478C139.537 46.9685 139.413 45.6194 139.413 44.0006V29.057H151.679V24.2003Z" fill="#A5A8A9"/>
<path fill-rule="evenodd" clip-rule="evenodd" d="M156.634 40.4514C156.634 37.5872 157.049 35.0966 157.88 32.9796C158.709 30.8211 159.809 29.0362 161.179 27.6248C162.55 26.2135 164.127 25.155 165.912 24.4493C167.696 23.7437 169.523 23.3908 171.391 23.3908C175.749 23.3908 179.091 24.7607 181.416 27.5003C183.74 30.1985 184.903 34.3287 184.903 39.891V40.8872C184.903 41.2608 184.882 41.6137 184.84 41.9458H162.674C162.923 45.3081 163.898 47.8609 165.6 49.6043C167.302 51.3477 169.959 52.2194 173.57 52.2194C175.604 52.2194 177.306 52.0534 178.676 51.7213C180.087 51.3477 181.146 50.9949 181.852 50.6628L182.661 55.5195C181.955 55.8928 180.71 56.2872 178.925 56.7026C177.182 57.1175 175.189 57.3252 172.947 57.3252C170.125 57.3252 167.676 56.9103 165.6 56.08C163.567 55.2082 161.885 54.0251 160.557 52.5308C159.228 51.0364 158.233 49.2722 157.568 47.2383C156.945 45.1628 156.634 42.9005 156.634 40.4514ZM178.863 37.2759C178.904 34.6607 178.24 32.523 176.87 30.8626C175.542 29.1607 173.695 28.3097 171.329 28.3097C170.001 28.3097 168.817 28.5795 167.779 29.1192C166.784 29.6173 165.932 30.2814 165.227 31.1117C164.521 31.9418 163.961 32.8966 163.546 33.9758C163.172 35.0551 162.923 36.1551 162.798 37.2759H178.863Z" fill="#A5A8A9"/>
<path d="M200.381 56.08C202.373 56.9103 204.677 57.3252 207.293 57.3252C208.123 57.3252 208.974 57.2631 209.845 57.1385C210.758 57.0554 211.61 56.9308 212.398 56.7647C213.187 56.64 213.892 56.4949 214.515 56.3288C215.138 56.1215 215.615 55.9139 215.947 55.7062L215.138 50.8496C214.432 51.1817 213.457 51.493 212.211 51.7836C210.966 52.0742 209.575 52.2194 208.04 52.2194C206.13 52.2194 204.511 51.9496 203.183 51.41C201.854 50.8288 200.754 50.0194 199.883 48.9817C199.053 47.9439 198.43 46.6986 198.015 45.2458C197.642 43.7929 197.454 42.1948 197.454 40.4514C197.454 36.5495 198.306 33.5815 200.007 31.5475C201.751 29.5135 204.241 28.4965 207.479 28.4965C208.766 28.4965 209.97 28.6211 211.091 28.8701C212.253 29.1192 213.27 29.4513 214.141 29.8663L215.449 24.9474C214.121 24.4078 212.73 24.0135 211.277 23.7644C209.824 23.5153 208.372 23.3908 206.919 23.3908C204.553 23.3908 202.394 23.8267 200.443 24.6984C198.534 25.5286 196.915 26.7116 195.587 28.2475C194.258 29.7418 193.22 31.5267 192.473 33.6022C191.768 35.6777 191.415 37.9608 191.415 40.4514C191.415 42.942 191.747 45.225 192.411 47.3005C193.075 49.3345 194.072 51.0987 195.4 52.593C196.77 54.0872 198.43 55.2497 200.381 56.08Z" fill="#A5A8A9"/>
<path fill-rule="evenodd" clip-rule="evenodd" d="M249.953 40.3891C249.953 42.9627 249.58 45.2873 248.832 47.3628C248.085 49.4383 247.027 51.2232 245.657 52.7176C244.329 54.2118 242.731 55.3744 240.862 56.2046C238.995 56.9929 236.961 57.3872 234.761 57.3872C232.561 57.3872 230.527 56.9929 228.658 56.2046C226.791 55.3744 225.172 54.2118 223.802 52.7176C222.474 51.2232 221.436 49.4383 220.688 47.3628C219.941 45.2873 219.568 42.9627 219.568 40.3891C219.568 37.857 219.941 35.5532 220.688 33.4777C221.436 31.3607 222.474 29.555 223.802 28.0607C225.172 26.5663 226.791 25.4248 228.658 24.6361C230.527 23.8059 232.561 23.3908 234.761 23.3908C236.961 23.3908 238.995 23.8059 240.862 24.6361C242.731 25.4248 244.329 26.5663 245.657 28.0607C247.027 29.555 248.085 31.3607 248.832 33.4777C249.58 35.5532 249.953 37.857 249.953 40.3891ZM243.913 40.3891C243.913 36.7362 243.083 33.8513 241.423 31.7343C239.804 29.5758 237.583 28.4965 234.761 28.4965C231.938 28.4965 229.696 29.5758 228.036 31.7343C226.417 33.8513 225.608 36.7362 225.608 40.3891C225.608 44.042 226.417 46.9477 228.036 49.1062C229.696 51.2232 231.938 52.2817 234.761 52.2817C237.583 52.2817 239.804 51.2232 241.423 49.1062C243.083 46.9477 243.913 44.042 243.913 40.3891Z" fill="#A5A8A9"/>
<path d="M258.1 56.5781H263.891V24.2003H258.1V56.5781Z" fill="#A5A8A9"/>
<path d="M258.287 17.3512C259.034 18.0154 259.926 18.3474 260.964 18.3474C262.002 18.3474 262.874 18.0154 263.579 17.3512C264.327 16.6455 264.7 15.7115 264.7 14.5493C264.7 13.387 264.327 12.4738 263.579 11.8096C262.874 11.1039 262.002 10.7511 260.964 10.7511C259.926 10.7511 259.034 11.1039 258.287 11.8096C257.581 12.4738 257.228 13.387 257.228 14.5493C257.228 15.7115 257.581 16.6455 258.287 17.3512Z" fill="#A5A8A9"/>
<path d="M273.849 25.1342C275.177 24.8022 276.941 24.4494 279.141 24.0758C281.341 23.7022 283.874 23.5154 286.738 23.5154C289.311 23.5154 291.449 23.889 293.151 24.6361C294.853 25.3418 296.202 26.3588 297.198 27.6871C298.236 28.9739 298.962 30.5306 299.378 32.357C299.792 34.1834 300 36.1967 300 38.3967V56.578H294.209V39.642C294.209 37.6495 294.064 35.9476 293.773 34.5363C293.525 33.1249 293.089 31.9834 292.466 31.1117C291.843 30.24 291.013 29.6173 289.975 29.2437C288.938 28.8287 287.651 28.6211 286.115 28.6211C285.492 28.6211 284.849 28.6418 284.185 28.6834C283.521 28.7249 282.877 28.7871 282.254 28.8701C281.673 28.9117 281.134 28.9739 280.635 29.057C280.179 29.14 279.847 29.2023 279.64 29.2437V56.578H273.849V25.1342Z" fill="#A5A8A9"/>
</svg>
