<svg width="300" height="67" viewBox="0 0 300 67" fill="none" xmlns="http://www.w3.org/2000/svg">
<path fill-rule="evenodd" clip-rule="evenodd" d="M25.5835 65.5332C43.3512 69.9639 61.3448 59.1519 65.774 41.3862C70.2031 23.6196 59.3926 5.6229 41.6258 1.19367C23.8633 -3.23556 5.86965 7.57739 1.44249 25.3451C-2.98881 43.1096 7.82309 61.1041 25.5835 65.5332ZM40.9357 20.2723C45.5297 21.8547 48.8894 24.2269 48.2293 28.6395C47.7515 31.8697 45.9608 33.4335 43.5835 33.9818C46.8479 35.6813 48.5091 38.2877 46.9266 42.806C44.9628 48.4177 40.2973 48.8913 34.0929 47.7171L32.5871 53.7514L28.9486 52.8449L30.4347 46.8912C29.4916 46.657 28.5278 46.4082 27.535 46.1388L26.0438 52.1206L22.4094 51.2136L23.9152 45.1677C23.5755 45.0808 23.2337 44.9916 22.8894 44.9018C22.3724 44.7671 21.8501 44.6308 21.3213 44.4983L16.5863 43.318L18.3927 39.153C18.3927 39.153 21.0736 39.866 21.0374 39.8131C22.0674 40.068 22.5244 39.3965 22.7048 38.9489L25.0842 29.4095C25.1733 29.4309 25.2607 29.4528 25.3449 29.4739C25.387 29.4845 25.4283 29.4949 25.4686 29.5048C25.3236 29.4468 25.1919 29.4095 25.0904 29.3836L26.7879 22.5739C26.8324 21.8008 26.5661 20.8257 25.0925 20.4578C25.1495 20.4194 22.4499 19.8008 22.4499 19.8008L23.4177 15.9146L28.4356 17.1675L28.4314 17.1862C29.1859 17.3737 29.9631 17.552 30.7549 17.7323L32.2461 11.7569L35.8826 12.6637L34.4214 18.5219C35.3976 18.7448 36.38 18.9697 37.3366 19.208L38.7874 13.3881L42.4259 14.2948L40.9357 20.2723ZM29.4268 41.9445C32.3957 42.7286 38.8844 44.4424 39.916 40.2971C40.973 36.0586 34.6801 34.6465 31.6094 33.9575C31.2663 33.8805 30.9634 33.8125 30.7155 33.7507L28.7175 41.7604C28.9211 41.8109 29.1597 41.8739 29.4268 41.9445ZM32.2264 30.2404C34.7017 30.901 40.1009 32.3419 41.0414 28.5742C42.0018 24.7205 36.7542 23.5588 34.1913 22.9914C33.903 22.9277 33.6487 22.8713 33.441 22.8196L31.6295 30.0842C31.8006 30.1268 32.0014 30.1804 32.2264 30.2404Z" fill="#F7941D"/>
<path fill-rule="evenodd" clip-rule="evenodd" d="M105.036 17.9326C107.414 17.9326 109.469 18.3586 111.195 19.1952C112.929 20.0399 114.36 21.1779 115.508 22.6091C116.641 24.0476 117.484 25.7289 118.028 27.6558C118.568 29.5882 118.84 31.6653 118.84 33.889C118.84 37.3048 118.214 40.5318 116.951 43.5738C115.687 46.6202 113.973 49.2627 111.792 51.5167C109.613 53.7679 107.041 55.5425 104.074 56.8538C101.111 58.1661 97.8909 58.822 94.4331 58.822C93.9859 58.822 93.1997 58.809 92.089 58.7861C90.9789 58.7631 89.7025 58.6488 88.2729 58.4556C86.8343 58.2549 85.3133 57.9579 83.7075 57.5601C82.1022 57.1697 80.5772 56.6227 79.1416 55.9283L91.9802 1.98352L103.479 0.201416L98.8822 19.3445C99.8661 18.9011 100.857 18.5574 101.847 18.3073C102.838 18.0609 103.9 17.9326 105.036 17.9326ZM95.3915 49.6997C97.1231 49.6997 98.7549 49.2737 100.288 48.4371C101.825 47.5997 103.152 46.4691 104.263 45.0608C105.375 43.6461 106.254 42.0528 106.896 40.2725C107.537 38.4922 107.861 36.635 107.861 34.7026C107.861 32.3286 107.464 30.4769 106.674 29.1383C105.883 27.8051 104.42 27.1345 102.295 27.1345C101.599 27.1345 100.702 27.2673 99.5895 27.5046C98.4734 27.7566 97.475 28.2797 96.5795 29.0668L91.6852 49.3965C91.9802 49.4487 92.2413 49.4982 92.4639 49.5449C92.682 49.5953 92.9231 49.6311 93.1627 49.6558C93.4168 49.6842 93.7073 49.6988 94.0582 49.6988C94.2142 49.6988 94.3875 49.699 94.5796 49.6992H94.5883C94.8263 49.6995 95.0931 49.6997 95.3915 49.6997Z" fill="#4D4D4D"/>
<path d="M130.764 57.7892H119.781L129.056 18.76H140.114L130.764 57.7892Z" fill="#4D4D4D"/>
<path d="M136.109 14.0046C134.576 14.0046 133.186 13.5483 131.952 12.6339C130.709 11.725 130.094 10.3259 130.094 8.44026C130.094 7.40309 130.304 6.43001 130.722 5.51194C131.146 4.59569 131.7 3.80681 132.395 3.13612C133.089 2.47092 133.892 1.93949 134.805 1.53909C135.723 1.14511 136.7 0.94812 137.74 0.94812C139.272 0.94812 140.655 1.40441 141.893 2.31883C143.126 3.23782 143.746 4.63692 143.746 6.51247C143.746 7.55334 143.537 8.53006 143.115 9.44628C142.697 10.3626 142.142 11.1514 141.448 11.8221C140.759 12.4882 139.949 13.0178 139.038 13.4146C138.119 13.815 137.146 14.0046 136.109 14.0046Z" fill="#4D4D4D"/>
<path d="M161.244 7.25378L149.74 9.03586L142.464 39.7549C141.872 42.2782 141.528 44.6742 141.426 46.9538C141.328 49.2279 141.679 51.2462 142.464 52.9972C143.26 54.7548 144.591 56.143 146.473 57.1588C148.358 58.1676 151.003 58.6743 154.415 58.6743C156.788 58.6743 158.841 58.4821 160.576 58.0823C162.307 57.6884 163.914 57.2202 165.399 56.6761L164.58 48.2136C163.442 48.614 162.317 48.92 161.208 49.1399C160.092 49.3635 158.938 49.4762 157.753 49.4762C156.314 49.4762 155.217 49.2756 154.452 48.877C153.682 48.4848 153.151 47.9305 152.856 47.2112C152.559 46.4938 152.434 45.6417 152.488 44.6494C152.536 43.6617 152.706 42.5989 153.007 41.4609L156.269 27.8088H168.514L170.739 18.7582H158.419L161.244 7.25378Z" fill="#4D4D4D"/>
<path d="M170.254 42.204C170.254 38.8423 170.799 35.6721 171.886 32.7044C172.972 29.7339 174.536 27.1363 176.565 24.9071C178.588 22.6888 181.051 20.9315 183.951 19.6414C186.837 18.3587 190.069 17.7118 193.63 17.7118C195.86 17.7118 197.85 17.9225 199.603 18.3449C201.362 18.771 202.953 19.3217 204.393 20.0125L200.605 28.6252C199.615 28.2239 198.588 27.8702 197.526 27.5495C196.463 27.2224 195.166 27.0649 193.631 27.0649C189.966 27.0649 187.067 28.3284 184.91 30.8471C182.762 33.3677 181.68 36.7605 181.68 41.0165C181.68 43.5389 182.224 45.5785 183.316 47.1389C184.403 48.6992 186.41 49.4753 189.325 49.4753C190.763 49.4753 192.151 49.3251 193.481 49.0318C194.82 48.735 196.003 48.3612 197.045 47.9195L197.865 56.7485C196.476 57.2871 194.944 57.7738 193.264 58.1996C191.58 58.6114 189.575 58.8245 187.251 58.8245C184.182 58.8245 181.585 58.3758 179.46 57.4917C177.334 56.5937 175.578 55.4017 174.194 53.8917C172.803 52.3778 171.804 50.6107 171.187 48.582C170.569 46.5552 170.254 44.4259 170.254 42.204Z" fill="#4D4D4D"/>
<path fill-rule="evenodd" clip-rule="evenodd" d="M212.215 57.6345C214.146 58.4252 216.423 58.8245 219.045 58.8245C222.656 58.8245 225.838 58.0678 228.581 56.5598C231.328 55.0518 233.615 53.11 235.444 50.738C237.276 48.3603 238.664 45.6848 239.6 42.7263C240.534 39.753 241.005 36.7807 241.005 33.8167C241.005 31.4445 240.686 29.2758 240.041 27.326C239.399 25.3689 238.445 23.6802 237.19 22.2417C235.921 20.8106 234.316 19.6918 232.367 18.9029C230.409 18.1122 228.144 17.7118 225.57 17.7118C222.063 17.7118 218.94 18.4686 216.225 19.9731C213.508 21.4876 211.2 23.4301 209.329 25.806C207.443 28.1781 206.018 30.8471 205.058 33.8176C204.093 36.7817 203.616 39.754 203.616 42.7271C203.616 45.0975 203.928 47.2607 204.575 49.2141C205.223 51.1683 206.168 52.8645 207.432 54.2956C208.694 55.7342 210.289 56.8438 212.215 57.6345ZM220.234 28.4722C221.466 27.5385 222.906 27.0658 224.534 27.0658C226.611 27.0658 228.048 27.7603 228.839 29.141C229.632 30.5273 230.03 32.4606 230.03 34.9308C230.03 36.4628 229.818 38.0873 229.403 39.7906C228.978 41.4985 228.346 43.0717 227.504 44.5028C226.66 45.9376 225.621 47.1261 224.391 48.0634C223.151 49.0071 221.719 49.4762 220.085 49.4762C218.007 49.4762 216.576 48.7817 215.78 47.4009C214.995 46.0128 214.595 44.0841 214.595 41.6075C214.595 40.0728 214.802 38.4575 215.222 36.7487C215.646 35.0435 216.274 33.4749 217.121 32.0364C217.958 30.6043 218.997 29.4168 220.234 28.4722Z" fill="#4D4D4D"/>
<path d="M252.974 57.7892H241.981L251.256 18.76H262.32L252.974 57.7892Z" fill="#4D4D4D"/>
<path d="M258.31 14.0046C256.778 14.0046 255.389 13.5483 254.157 12.6339C252.92 11.725 252.299 10.3259 252.299 8.44026C252.299 7.40309 252.512 6.43001 252.931 5.51194C253.35 4.59569 253.908 3.80681 254.602 3.13612C255.292 2.47092 256.103 1.93949 257.014 1.53909C257.927 1.14511 258.903 0.94812 259.94 0.94812C261.476 0.94812 262.863 1.40441 264.099 2.31883C265.335 3.23782 265.958 4.63692 265.958 6.51247C265.958 7.55334 265.737 8.53006 265.322 9.44628C264.907 10.3626 264.349 11.1514 263.657 11.8221C262.96 12.4882 262.16 13.0178 261.247 13.4146C260.327 13.815 259.352 14.0046 258.31 14.0046Z" fill="#4D4D4D"/>
<path d="M273.013 19.6789C272.001 19.9977 271.07 20.291 270.235 20.5346L261.252 57.7847H272.312L279.511 27.5861C280.998 27.2892 282.455 27.1353 283.887 27.1353C285.372 27.1353 286.467 27.4202 287.192 27.9874C287.906 28.5637 288.365 29.3077 288.56 30.2167C288.765 31.1365 288.775 32.1994 288.6 33.4052C288.427 34.6219 288.192 35.8671 287.893 37.1553L282.997 57.7857H294.053L299.105 36.7119C300.534 30.8773 300.153 26.274 297.95 22.9105C295.746 19.5469 291.753 17.8601 285.96 17.8601C283.99 17.8601 282.215 17.9463 280.659 18.1231C279.102 18.2963 277.687 18.5199 276.432 18.7956C275.164 19.0632 274.029 19.3601 273.013 19.6789Z" fill="#4D4D4D"/>
<defs>
<clipPath id="clip0">
<rect width="300" height="66.8885" fill="white"/>
</clipPath>
</defs>
</svg>
