<svg width="300" height="72" viewBox="0 0 300 72" fill="none" xmlns="http://www.w3.org/2000/svg">
<path d="M0.0830078 36.4454L21.7725 49.2106V0.421875L0.0830078 36.4454Z" fill="#D0D0D0"/>
<path d="M21.7725 0.421875V49.2106L43.4619 36.3834L21.7725 0.421875Z" fill="#717171"/>
<path d="M85.6429 42.5801C85.6429 42.8321 85.5431 43.0738 85.3649 43.2519C85.1867 43.4301 84.9451 43.5302 84.693 43.5302H66.3496C66.4689 45.7924 67.4213 47.9304 69.0231 49.5322C70.6255 51.134 72.7634 52.0864 75.0256 52.2057C76.5091 52.2681 77.9832 51.9447 79.3045 51.2678C80.6258 50.5909 81.7494 49.5833 82.5651 48.343C82.6819 48.1476 82.8665 48.0019 83.0832 47.9334C83.3003 47.8648 83.5349 47.8783 83.7426 47.9712C83.8764 48.0303 83.9937 48.1216 84.084 48.2369C84.1739 48.3522 84.2343 48.488 84.2592 48.6322C84.2967 48.8536 84.2522 49.081 84.1349 49.2725C83.1666 50.8011 81.8133 52.0485 80.211 52.8896C78.6086 53.7307 76.8131 54.1355 75.0052 54.0646C72.0935 53.9359 69.3501 52.664 67.3704 50.5255C65.3902 48.3873 64.3334 45.5546 64.4288 42.642C64.3334 39.7294 65.3902 36.8967 67.3704 34.7583C69.3501 32.6199 72.0935 31.3483 75.0052 31.2195C77.9253 31.3325 80.6832 32.5936 82.6794 34.7286C84.675 36.8636 85.7478 39.7 85.6639 42.6214L85.6429 42.5801ZM83.5983 41.7332C83.4925 39.4664 82.5446 37.3205 80.9398 35.7159C79.3349 34.1113 77.189 33.1634 74.9223 33.0578C72.6601 33.1771 70.5221 34.1294 68.9203 35.7312C67.318 37.333 66.3661 39.471 66.2468 41.7332H83.5983ZM107.849 31.6739C108.089 31.6791 108.317 31.7766 108.486 31.9459C108.655 32.1152 108.752 32.3433 108.758 32.5827C108.761 32.7028 108.739 32.8223 108.695 32.9339C108.65 33.0454 108.583 33.1467 108.498 33.2317C108.413 33.3166 108.312 33.3835 108.2 33.4281C108.089 33.4728 107.969 33.4944 107.849 33.4916H103.015V52.8047C103.015 53.0483 102.919 53.2824 102.746 53.4547C102.574 53.6269 102.34 53.7237 102.096 53.7237C101.852 53.7237 101.618 53.6269 101.446 53.4547C101.274 53.2824 101.177 53.0483 101.177 52.8047V33.4709H96.4464C96.3266 33.4738 96.2068 33.4521 96.0955 33.4075C95.9837 33.3628 95.8824 33.296 95.7975 33.211C95.7126 33.126 95.6458 33.0247 95.6013 32.9132C95.5564 32.8016 95.5349 32.6822 95.5374 32.5621C95.5479 32.3243 95.6468 32.0989 95.815 31.9306C95.9832 31.7624 96.2088 31.6633 96.4464 31.6532H101.177V24.5683C101.173 24.3509 101.244 24.1388 101.38 23.9689C101.516 23.7991 101.708 23.6823 101.921 23.6388C102.055 23.6108 102.193 23.6134 102.326 23.6463C102.458 23.6793 102.582 23.7418 102.687 23.8291C102.792 23.9165 102.877 24.0264 102.934 24.1509C102.991 24.2753 103.018 24.4109 103.015 24.5476V31.6326H107.932L107.849 31.6739ZM137.946 40.9482V52.6395C137.94 52.8786 137.843 53.1067 137.674 53.2765C137.504 53.4457 137.276 53.543 137.037 53.548C136.917 53.551 136.797 53.5295 136.686 53.4846C136.574 53.4402 136.473 53.3733 136.388 53.2884C136.303 53.2036 136.236 53.1022 136.191 52.9904C136.147 52.8791 136.125 52.7593 136.128 52.6395V40.9482C136.128 37.003 133.897 33.0578 129.497 33.0578C123.858 33.0578 121.42 37.9945 121.751 43.0345C121.751 43.1584 121.751 43.7574 121.751 43.8194V52.5981C121.755 52.8157 121.683 53.0279 121.548 53.1976C121.412 53.3673 121.221 53.4841 121.007 53.5275C120.873 53.5555 120.735 53.553 120.602 53.52C120.469 53.4871 120.346 53.4247 120.241 53.3373C120.135 53.25 120.051 53.1397 119.994 53.0154C119.938 52.8911 119.91 52.7553 119.912 52.6185V14.2405C119.912 13.9967 120.009 13.7629 120.182 13.5905C120.354 13.4181 120.588 13.3213 120.832 13.3213C121.075 13.3213 121.309 13.4181 121.482 13.5905C121.654 13.7629 121.751 13.9967 121.751 14.2405V35.9702C122.489 34.5645 123.592 33.3834 124.944 32.551C126.296 31.7187 127.848 31.2659 129.435 31.2401C134.826 31.2401 137.904 35.9702 137.904 40.9689L137.946 40.9482ZM170.81 42.5801C170.81 42.8321 170.71 43.0738 170.532 43.2519C170.354 43.4301 170.112 43.5302 169.86 43.5302H151.538C151.657 45.7924 152.609 47.9304 154.211 49.5322C155.813 51.134 157.951 52.0864 160.214 52.2057C161.697 52.2681 163.171 51.9447 164.493 51.2678C165.814 50.5909 166.937 49.5833 167.753 48.343C167.87 48.1476 168.055 48.0019 168.271 47.9334C168.488 47.8648 168.723 47.8783 168.931 47.9712C169.064 48.0303 169.182 48.1216 169.272 48.2369C169.362 48.3522 169.422 48.488 169.447 48.6322C169.485 48.8536 169.441 49.081 169.323 49.2725C168.35 50.8006 166.993 52.0455 165.387 52.8831C163.78 53.7207 161.982 54.121 160.172 54.0442C157.261 53.9149 154.518 52.6435 152.538 50.5051C150.558 48.3667 149.501 45.534 149.596 42.6214C149.505 41.1714 149.713 39.7183 150.206 38.3516C150.698 36.9849 151.466 35.7336 152.461 34.6749C153.455 33.6161 154.656 32.7723 155.99 32.1955C157.323 31.6187 158.761 31.3211 160.214 31.3211C161.666 31.3211 163.104 31.6187 164.437 32.1955C165.771 32.7723 166.972 33.6161 167.967 34.6749C168.962 35.7336 169.729 36.9849 170.221 38.3516C170.714 39.7183 170.922 41.1714 170.831 42.6214L170.81 42.5801ZM168.765 41.7332C168.765 39.4323 167.851 37.2257 166.225 35.5988C164.597 33.9718 162.391 33.0578 160.09 33.0578C157.789 33.0578 155.582 33.9718 153.955 35.5988C152.328 37.2257 151.414 39.4323 151.414 41.7332H168.765ZM193.264 32.5414C193.276 32.6625 193.263 32.7846 193.226 32.9005C193.189 33.0164 193.129 33.1237 193.05 33.2162C192.972 33.3086 192.875 33.3843 192.766 33.4387C192.657 33.4931 192.539 33.5251 192.417 33.5329C187.026 34.3178 184.609 38.7175 184.609 43.8607V52.6395C184.613 52.8567 184.542 53.0688 184.406 53.239C184.27 53.4087 184.079 53.5255 183.866 53.569C183.731 53.5969 183.593 53.5944 183.46 53.5615C183.328 53.5285 183.204 53.4661 183.099 53.3788C182.994 53.2914 182.909 53.1811 182.852 53.0568C182.796 52.9325 182.768 52.7968 182.771 52.66V32.686C182.767 32.4685 182.838 32.2564 182.974 32.0866C183.11 31.9167 183.301 31.7999 183.514 31.7565C183.648 31.7285 183.787 31.7311 183.92 31.764C184.052 31.7969 184.176 31.8594 184.281 31.9468C184.386 32.0342 184.47 32.1441 184.527 32.2686C184.584 32.393 184.612 32.5286 184.609 32.6654V36.7965C185.377 35.3588 186.491 34.1354 187.851 33.2373C189.21 32.3392 190.773 31.7947 192.396 31.6532C192.64 31.636 192.88 31.7152 193.066 31.8736C193.252 32.0321 193.367 32.2571 193.388 32.5001L193.264 32.5414ZM223.547 42.6007C223.547 42.8527 223.447 43.0944 223.269 43.2726C223.09 43.4508 222.849 43.5509 222.597 43.5509H204.233C204.352 45.813 205.304 47.951 206.906 49.5528C208.508 51.1545 210.647 52.1069 212.909 52.2262C214.392 52.2886 215.866 51.9656 217.188 51.2888C218.509 50.6119 219.633 49.6039 220.448 48.3636C220.565 48.1683 220.749 48.0226 220.966 47.954C221.184 47.8855 221.418 47.899 221.626 47.9919C221.76 48.051 221.877 48.1422 221.967 48.2576C222.057 48.3729 222.117 48.5086 222.142 48.6528C222.18 48.8742 222.135 49.1017 222.018 49.2931C221.05 50.8215 219.697 52.069 218.094 52.9101C216.492 53.7512 214.696 54.1565 212.888 54.0851C209.977 53.9563 207.233 52.6849 205.254 50.5465C203.273 48.408 202.217 45.5753 202.312 42.6627C202.222 41.2128 202.429 39.7596 202.921 38.3929C203.414 37.0262 204.181 35.7749 205.176 34.7161C206.171 33.6574 207.372 32.8136 208.706 32.2368C210.039 31.66 211.477 31.3624 212.929 31.3624C214.382 31.3624 215.819 31.66 217.153 32.2368C218.487 32.8136 219.688 33.6574 220.682 34.7161C221.677 35.7749 222.444 37.0262 222.937 38.3929C223.43 39.7596 223.637 41.2128 223.547 42.6627V42.6007ZM221.481 41.7745C221.481 39.4737 220.567 37.267 218.94 35.64C217.313 34.0131 215.107 33.0991 212.805 33.0991C210.504 33.0991 208.298 34.0131 206.671 35.64C205.044 37.267 204.129 39.4737 204.129 41.7745H221.481ZM253.127 32.686V52.7428C253.122 52.9819 253.024 53.2101 252.855 53.3793C252.686 53.549 252.458 53.6463 252.218 53.6513C252.098 53.6543 251.979 53.6329 251.867 53.5879C251.756 53.5435 251.654 53.4766 251.569 53.3918C251.485 53.3064 251.418 53.2051 251.373 53.0938C251.328 52.9824 251.307 52.8626 251.309 52.7428V48.9626C250.663 50.4616 249.602 51.7455 248.252 52.6635C246.903 53.5819 245.319 54.0966 243.687 54.147C238.234 54.147 235.218 49.4171 235.218 44.4184V32.686C235.218 32.4422 235.315 32.2084 235.487 32.036C235.659 31.8636 235.894 31.7668 236.137 31.7668C236.381 31.7668 236.615 31.8636 236.787 32.036C236.96 32.2084 237.057 32.4422 237.057 32.686V44.4391C237.057 48.3843 239.287 52.3295 243.687 52.3295C249.884 52.3295 251.309 46.546 251.309 40.1634V32.686C251.311 32.5434 251.345 32.403 251.409 32.2757C251.473 32.1484 251.565 32.0374 251.679 31.9516C251.793 31.8657 251.925 31.8072 252.065 31.7805C252.205 31.7539 252.35 31.7598 252.487 31.7978C252.669 31.8666 252.827 31.9875 252.941 32.1455C253.055 32.3035 253.119 32.4914 253.127 32.686ZM299.563 40.9482V52.7014C299.558 52.9405 299.461 53.1686 299.291 53.3383C299.122 53.5076 298.894 53.6049 298.654 53.6104C298.534 53.6129 298.415 53.5914 298.303 53.547C298.192 53.5021 298.09 53.4352 298.005 53.3503C297.921 53.2655 297.854 53.1641 297.809 53.0523C297.764 52.941 297.743 52.8217 297.745 52.7014V40.9482C297.745 37.003 295.515 33.1404 291.115 33.1404C285.6 33.1404 283.493 39.0479 283.493 43.6541V52.7219C283.487 52.9615 283.39 53.1896 283.221 53.3588C283.051 53.528 282.823 53.6254 282.584 53.6309C282.463 53.6339 282.344 53.6119 282.232 53.5675C282.121 53.5225 282.02 53.4562 281.935 53.3708C281.85 53.2859 281.783 53.1846 281.738 53.0733C281.694 52.9615 281.672 52.8422 281.675 52.7219V40.9482C281.675 37.003 279.444 33.1404 275.044 33.1404C269.467 33.1404 267.153 37.5401 267.36 43.4682C267.36 43.5922 267.36 43.8607 267.36 43.9227V52.7633C267.364 52.9809 267.292 53.1931 267.156 53.3628C267.02 53.5325 266.829 53.6493 266.616 53.6928C266.482 53.7207 266.344 53.7182 266.211 53.6853C266.078 53.6523 265.954 53.5899 265.85 53.5026C265.744 53.4152 265.66 53.3054 265.603 53.1806C265.547 53.0563 265.518 52.9205 265.521 52.7838V32.686C265.517 32.4685 265.589 32.2564 265.725 32.0866C265.861 31.9167 266.052 31.7999 266.265 31.7565C266.399 31.7285 266.537 31.7311 266.67 31.764C266.802 31.7969 266.926 31.8594 267.032 31.9468C267.137 32.0342 267.221 32.1441 267.278 32.2686C267.335 32.393 267.363 32.5286 267.36 32.6654V36.0116C268.102 34.6145 269.208 33.4436 270.561 32.622C271.913 31.8005 273.462 31.3588 275.044 31.3434C276.797 31.3632 278.499 31.9402 279.903 32.9911C281.306 34.042 282.34 35.5122 282.852 37.1889C283.495 35.5052 284.623 34.0505 286.094 33.0096C287.566 31.9688 289.313 31.3888 291.115 31.3434C296.506 31.3434 299.584 35.9909 299.584 40.9896" fill="#3C3C3B"/>
<path d="M21.7725 26.4893L0.0830078 36.4453L21.7725 49.2105L43.462 36.3833L21.7725 26.4893Z" fill="#595959"/>
<path d="M0.0830078 40.5566L21.7725 71.1479V53.3425L0.0830078 40.5566Z" fill="#D0D0D0"/>
<path d="M21.7725 53.3418V71.1057L43.4826 40.5352L21.7725 53.3418Z" fill="#717171"/>
<path fill-rule="evenodd" clip-rule="evenodd" d="M21.7725 26.4893L0.0830078 36.4453L21.7725 49.2104V26.4893Z" fill="#A3A3A3"/>
<defs>
<clipPath id="clip0">
<rect width="300" height="71.381" fill="white"/>
</clipPath>
</defs>
</svg>
