<svg width="300" height="162" viewBox="0 0 300 162" fill="none" xmlns="http://www.w3.org/2000/svg">
<path d="M99 0.824219C99 4.39519 99.1177 7.9635 99.3999 11.5238C100.47 25.381 103.829 39.0776 109.302 51.8541C117.923 72.0491 131.852 89.9526 149.291 103.292C149.526 103.479 149.769 103.651 150.014 103.824C150.248 103.651 150.482 103.477 150.71 103.296C167.591 90.3935 182.013 72.9691 190.503 53.3127L190.808 52.6063H133.423C135.409 56.3317 137.779 59.8009 140.173 63.272H172.739C166.699 73.0724 158.655 82.137 150.015 89.6772C137.327 78.6192 127.059 64.7674 120.195 49.3977C114.885 37.5844 111.599 24.8821 110.43 11.9863H189.57C188.98 18.5008 187.854 24.9638 186.19 31.29H124.768C125.838 34.9284 127.22 38.4401 128.646 41.9507H194.286L194.497 41.3222C198.827 28.4013 201 14.9645 201 1.32905V0.824219H99Z" fill="#F0271D"/>
<path d="M6.06008 144.979V136.192H10.8649C14.2845 136.192 15.7995 137.837 15.7995 140.607C15.7995 143.291 14.2845 144.979 10.8649 144.979H6.06008ZM22.0327 140.607C22.0327 135.369 18.3967 131.257 11.1246 131.257H0V161.471H6.06008V149.87H11.1246C18.9161 149.87 22.0327 145.195 22.0327 140.607Z" fill="black"/>
<path d="M26.2487 149.913C26.2487 157.878 31.7028 161.774 38.3256 161.774C44.9484 161.774 50.6622 157.878 50.6622 149.913V131.257H44.5588V149.957C44.5588 154.112 42.3079 156.277 38.4122 156.277C34.5597 156.277 32.3088 154.112 32.3088 149.957V131.257H26.2487V149.913Z" fill="black"/>
<path d="M77.6411 152.727C77.6411 142.079 62.1446 145.455 62.1446 139.395C62.1446 136.928 63.9193 135.759 66.3 135.845C68.8972 135.889 70.4988 137.447 70.6287 139.438H77.2948C76.9052 133.984 72.6631 130.824 66.4732 130.824C60.24 130.824 55.8248 134.114 55.8248 139.568C55.7815 150.519 71.3645 146.58 71.3645 153.117C71.3645 155.281 69.6764 156.796 66.8195 156.796C64.0059 156.796 62.4043 155.194 62.2311 152.77H55.7382C55.8248 158.484 60.6728 161.774 66.9493 161.774C73.8319 161.774 77.6411 157.489 77.6411 152.727Z" fill="black"/>
<path d="M101.898 161.471H107.958V131.257H101.898V143.68H88.955V131.257H82.8949V161.471H88.955V148.615H101.898V161.471Z" fill="black"/>
<path d="M138.176 130.867C129.432 130.867 122.766 137.274 122.766 146.32C122.766 155.367 129.432 161.73 138.219 161.73C146.27 161.73 151.767 156.103 152.979 149.956V144.676H136.617V149.307H147.006C146.097 153.592 143.11 156.276 138.435 156.276C132.808 156.276 128.999 152.467 128.999 146.32C128.999 140.304 132.765 136.451 138.176 136.451C141.379 136.451 143.889 137.793 145.274 140.347H152.244C150.296 134.287 144.928 130.867 138.176 130.867Z" fill="#F0271D"/>
<path d="M177.981 161.471H184.387L173.522 131.213H166.467L155.602 161.471H161.965L163.956 155.714H175.989L177.981 161.471ZM174.345 150.865H165.601L169.973 138.226L174.345 150.865Z" fill="#F0271D"/>
<path d="M188.448 161.471H194.508V141.819L202.646 161.471H207.234L215.329 141.819V161.471H221.389V131.257H214.55L204.94 153.722L195.331 131.257H188.448V161.471Z" fill="#F0271D"/>
<path d="M227.38 161.471H233.441V131.257H227.38V161.471Z" fill="#F0271D"/>
<path d="M259.21 131.213V151.991L245.488 131.213H239.428V161.471H245.488V140.736L259.21 161.471H265.27V131.213H259.21Z" fill="#F0271D"/>
<path d="M285.197 130.867C276.453 130.867 269.787 137.274 269.787 146.32C269.787 155.367 276.453 161.73 285.24 161.73C293.291 161.73 298.789 156.103 300.001 149.956V144.676H283.638V149.307H294.027C293.118 153.592 290.131 156.276 285.456 156.276C279.829 156.276 276.02 152.467 276.02 146.32C276.02 140.304 279.786 136.451 285.197 136.451C288.4 136.451 290.911 137.793 292.296 140.347H299.265C297.317 134.287 291.949 130.867 285.197 130.867Z" fill="#F0271D"/>
</svg>
