<svg xmlns="http://www.w3.org/2000/svg" width="301" height="94" fill="none" viewBox="0 0 301 94"><path fill="#000" fill-rule="evenodd" d="m35.415 31.154 12.342 20.925c.388.57-.065 1.326-.724 1.323h-9.959a1.61 1.61 0 0 1-1.421-.824L24.212 32.31H11.206v20.074c0 .554-.464 1.018-1.018 1.018H1.026a1.028 1.028 0 0 1-1.018-1.018V1.04A1.028 1.028 0 0 1 1.01 0H27.01c10.71.16 19.192 3.088 19.192 15.828 0 9.57-4.41 13.975-10.788 15.326Zm-24.21-8.13h15.911c5.92 0 7.746-3.161 7.746-6.808s-1.798-6.597-7.746-6.597h-15.91v13.404Z" clip-rule="evenodd"/><path fill="#000" d="M77.538 13.498c-1.581 2.308-1.992 5.552-1.992 8.28h30.129a1.03 1.03 0 0 1 1.018 1.018v7.24c0 .552-.471 1.018-1.018 1.018h-30.13c0 2.923.288 6.39 1.993 8.877 2.045 2.767 5.412 4.165 8.801 4.195h19.336c.548.009 1.001.47 1.001 1.019v7.228c0 .56-.465 1.018-1.018 1.018H84.331c-11.773 0-21.321-10.327-21.321-23.057v-7.266C63.01 10.328 72.558 0 84.33 0h21.344c.554 0 1.018.464 1.018 1.018v7.267c0 .56-.465 1.018-1.018 1.018H86.356c-3.392.032-6.764 1.433-8.818 4.195ZM259.185 7.875a7.852 7.852 0 0 1-7.85 7.854 7.852 7.852 0 0 1-7.851-7.854 7.852 7.852 0 0 1 7.851-7.853 7.852 7.852 0 0 1 7.85 7.853ZM239.247 93.477c.708 0 1.062-.421 1.062-1.24l-.006-17.428c0-.858-.409-1.29-1.228-1.29-.704-.019-1.199.617-1.178 1.29v14.218l-10.285-14.733a1.685 1.685 0 0 0-1.372-.83c-.675 0-1.012.431-1.012 1.29v17.428c0 .824.392 1.24 1.178 1.24a1.067 1.067 0 0 0 1.206-1.185V77.908l10.29 14.794c.28.47.794.768 1.345.775ZM135.853 93.493c.786 0 1.179-.515 1.179-1.621l-2.871-16.775a1.816 1.816 0 0 0-1.859-1.616c-.782-.014-1.528.473-1.732 1.234l-4.132 14.44h-.05l-4.172-14.33c-.189-.827-.951-1.36-1.787-1.339-.964-.002-1.706.797-1.809 1.727l-2.849 16.548c-.263 1.239 0 1.868 1.051 1.959a1.246 1.246 0 0 0 1.339-1.19l2.302-15.917 4.719 15.917a1.21 1.21 0 0 0 1.233.963 1.177 1.177 0 0 0 1.179-.963l4.774-15.911 2.252 15.806c.018.631.607 1.14 1.233 1.068ZM17.396 84.335c0 3.365-.977 5.879-2.932 7.543-1.228 1.048-3.013 1.572-5.355 1.572-2.855 0-5.048-1.107-6.578-3.32a10.9 10.9 0 0 1-2.003-6.343c-.022-2.893.704-5.282 2.18-7.167 1.531-1.976 3.973-3.07 6.456-3.078 2.372-.04 5.05.593 6.694 2.414.382.447.39 1.188-.089 1.566-.521.427-1.243.352-1.748-.056-1.353-1.11-2.911-1.867-4.691-1.843a5.378 5.378 0 0 0-4.808 2.58 9.506 9.506 0 0 0-1.416 5.108c-.022 2.79.756 4.985 2.335 6.586a4.98 4.98 0 0 0 3.502 1.456 6.456 6.456 0 0 0 2.982-.67c2.057-.993 3.086-2.827 3.086-5.502v-.852h-3.49a1.044 1.044 0 0 1-1.107-1.068c.061-.791.399-1.184 1.013-1.184h4.387c1.062 0 1.593.603 1.593 1.81l-.011.448ZM299.737 84.335c0 3.365-.978 5.879-2.932 7.543-1.229 1.048-3.014 1.572-5.356 1.572-2.854 0-5.047-1.107-6.578-3.32a10.943 10.943 0 0 1-2.002-6.343c-.022-2.893.704-5.282 2.179-7.167 1.532-1.976 3.973-3.07 6.457-3.078 2.371-.04 5.05.593 6.694 2.414.285.334.372.826.183 1.224-.133.28-.406.48-.697.575-.454.15-.957.007-1.323-.289-1.353-1.11-2.912-1.867-4.691-1.843a5.379 5.379 0 0 0-4.808 2.58 9.504 9.504 0 0 0-1.416 5.108c-.022 2.79.756 4.985 2.334 6.586a4.98 4.98 0 0 0 3.502 1.456 6.455 6.455 0 0 0 2.982-.67c2.058-.993 3.087-2.827 3.087-5.502v-.852h-3.491a1.043 1.043 0 0 1-.792-.285 1.055 1.055 0 0 1-.314-.783c.061-.791.398-1.184 1.012-1.184h4.387c1.063 0 1.594.603 1.594 1.81l-.011.448ZM181.982 92.071c0 .903-.388 1.35-1.156 1.35-.769 0-1.229-.43-1.229-1.294V74.81c0-.858.41-1.29 1.229-1.29.818 0 1.156.432 1.156 1.29V92.07Z"/><path fill="#000" fill-rule="evenodd" d="M73.493 93.477a1.307 1.307 0 0 1-1.233-.907l-1.295-3.542h-9.062l-1.294 3.547c-.192.637-.816.902-1.436.852-.92-.073-.918-.944-.744-1.627l6.307-16.874c.24-.742.847-1.444 1.676-1.456.835-.002 1.447.65 1.698 1.4l6.396 16.93c.221.813.067 1.677-1.013 1.677Zm-3.241-6.53-3.79-10.621h-.067l-3.761 10.62h7.618Z" clip-rule="evenodd"/><path fill="#000" d="M300.008 7.876c.003 4.884-4.64 8.649-9.379 7.708-3.082-.611-5.557-3.086-6.171-6.168-.951-4.782 2.822-9.388 7.699-9.388 4.275 0 7.848 3.574 7.851 7.848ZM259.185 46.07a7.852 7.852 0 0 1-7.85 7.853 7.852 7.852 0 0 1-7.851-7.854 7.852 7.852 0 1 1 15.701 0ZM300.008 46.07c0 4.874-4.6 8.653-9.382 7.702-3.082-.614-5.555-3.089-6.168-6.17-.951-4.782 2.823-9.386 7.699-9.386 4.278 0 7.851 3.577 7.851 7.853ZM279.594 26.959c-.003-4.274-3.575-7.848-7.851-7.848-4.877 0-8.651 4.606-7.699 9.387.614 3.083 3.089 5.557 6.171 6.17 4.783.95 9.382-2.834 9.379-7.709Z"/><path fill="#000" fill-rule="evenodd" d="M230.577 52.123 208.692.902a1.242 1.242 0 0 0-1.107-.858h-9.477a1.225 1.225 0 0 0-1.106.858l-21.919 51.221c-.318.57.115 1.279.752 1.279h9.748a1.246 1.246 0 0 0 1.14-.786l4.503-11.905h23.192l4.503 11.905c.177.465.639.785 1.14.786h9.742c.652.03 1.128-.722.774-1.279Zm-35.755-20.909 8.011-20.655 8.005 20.655h-16.016Z" clip-rule="evenodd"/><path fill="#000" d="M160.367 53.392a.95.95 0 0 0 .841-1.019v-7.228a.95.95 0 0 0-.841-1.018h-16.044a8.686 8.686 0 0 1-7.308-4.223 8.847 8.847 0 0 1-.868-3.636V.902a1.03 1.03 0 0 0-1.013-.874h-9.161c-.649 0-1.074.59-1.018 1.201v34.84a17.668 17.668 0 0 0 5.308 12.285 17.656 17.656 0 0 0 12.395 5.038h17.709Z"/></svg>