<svg width="300" height="190" viewBox="0 0 300 190" fill="none" xmlns="http://www.w3.org/2000/svg"><path d="M300 178.47a11.11 11.11 0 0 1-11.157 11.157H11.157A11.11 11.11 0 0 1 0 178.47V11.528A11.11 11.11 0 0 1 11.157.371h277.686A11.11 11.11 0 0 1 300 11.528V178.47Z" fill="#1A1F71"/><path d="m114.049 55.33-33.47 79.752H58.677l-16.53-63.637c-.826-3.719-2.066-5.372-4.958-7.025-4.959-2.479-13.223-5.372-20.248-6.611l.413-2.48H52.48c4.546 0 8.678 2.893 9.504 8.265l8.678 46.281 21.488-54.132h21.9v-.413Zm85.538 53.719c0-21.075-28.926-22.315-28.926-31.405 0-2.893 2.893-5.786 8.678-6.612 2.892-.413 11.157-.826 20.248 3.719l3.719-16.942c-4.959-1.653-11.157-3.72-19.422-3.72-20.248 0-34.711 10.745-34.711 26.447 0 11.57 10.331 17.769 18.182 21.488 7.852 3.719 10.744 6.198 10.744 9.917 0 5.372-6.198 7.851-12.397 7.851-10.33 0-16.529-2.892-21.074-4.958l-3.719 17.355c4.959 2.066 13.636 4.132 22.727 4.132 21.488 0 35.537-10.744 35.951-27.272Zm53.719 26.033h19.008L255.785 55.33h-17.769c-4.132 0-7.438 2.479-8.677 5.785l-30.992 73.967h21.488l4.132-11.984h26.446l2.893 11.984Zm-23.141-28.1 10.744-29.752 6.198 29.752h-16.942ZM143.388 55.33l-16.942 79.752h-20.661l16.942-79.752h20.661Z" fill="#fff"/></svg>