<svg width="300" height="244" viewBox="0 0 300 244" fill="none" xmlns="http://www.w3.org/2000/svg">
<path d="M275.059 206.586H283.049V235.718H300V243.001H275.059V206.586ZM260.404 243.001H268.393V206.586H260.404V243.001ZM225.632 237.454C229.874 241.224 235.362 243.298 241.042 243.278C248.877 243.278 254.378 239.221 254.378 231.992V231.888C254.378 225.541 250.228 222.89 242.862 220.963C236.587 219.351 235.027 218.569 235.027 216.18V216.076C235.027 214.304 236.635 212.902 239.697 212.902C243.136 213.115 246.429 214.366 249.139 216.491L253.289 210.457C249.473 207.387 244.701 205.749 239.8 205.827C232.378 205.827 227.086 210.197 227.086 216.804V216.908C227.086 224.139 231.809 226.165 239.123 228.041C245.195 229.6 246.441 230.64 246.441 232.668V232.772C246.441 234.904 244.47 236.205 241.198 236.205C237.168 236.092 233.316 234.52 230.36 231.782L225.636 237.454H225.632ZM224.001 243.132L208.433 206.458H201.065L185.496 243.132H193.645L204.644 216.083L209.422 227.831H203.009L200.171 234.875H212.287L215.645 243.134L224.001 243.132ZM128.374 206.586C139.791 206.586 147.678 214.442 147.678 224.689V224.793C147.678 235.039 139.791 242.999 128.374 242.999H115.895V206.586H128.377H128.374ZM139.325 224.793C139.48 221.865 138.363 218.951 136.293 216.876C134.221 214.799 131.307 213.673 128.377 213.815H123.883V235.77H128.377C131.295 235.936 134.207 234.833 136.281 232.773C138.353 230.716 139.476 227.815 139.325 224.898V224.793ZM98.0499 224.042V230.308H101.814V234.156C99.5992 235.657 96.9661 236.422 94.2904 236.34C91.2871 236.371 88.3457 235.13 86.274 232.955C84.2047 230.783 83.1093 227.788 83.2918 224.793V224.689C83.1773 221.807 84.2098 218.996 86.1639 216.872C88.118 214.747 90.835 213.48 93.7214 213.349C97.251 213.276 100.665 214.604 103.216 217.041L108.249 210.955C104.336 207.48 99.2084 205.686 93.9788 205.962C88.9686 205.866 84.0341 207.835 80.4707 211.359C76.9112 214.879 74.8879 219.786 74.9373 224.793V224.896C74.7812 229.933 76.7818 234.903 80.3794 238.431C83.981 241.963 88.9954 243.867 94.033 243.621C99.7344 243.637 105.248 241.586 109.547 237.848V224.04L98.0499 224.042ZM58.1516 224.042V230.308H61.9157V234.156C59.701 235.657 57.0679 236.422 54.3921 236.34C51.3889 236.371 48.4474 235.13 46.3758 232.955C44.3064 230.783 43.2111 227.788 43.3936 224.793V224.689C43.279 221.807 44.3115 218.996 46.2657 216.872C48.2198 214.747 50.9367 213.48 53.8231 213.349C57.3526 213.277 60.7666 214.605 63.3179 217.041L68.3509 210.955C64.4377 207.481 59.3102 205.687 54.0805 205.962C49.0702 205.865 44.1353 207.834 40.5718 211.359C37.0121 214.879 34.989 219.786 35.0391 224.793V224.896C34.8829 229.933 36.8836 234.903 40.4812 238.431C44.0827 241.963 49.0971 243.867 54.1347 243.621C59.8361 243.637 65.3492 241.585 69.6492 237.848V224.04L58.1516 224.042ZM13.9587 242.999H21.9497V231.25L35.9062 206.584H26.8269L18.005 222.786L9.3412 206.584H0L13.9587 231.406V242.999ZM174.132 229.993C176.489 229.222 178.527 227.7 179.933 225.662C181.34 223.623 182.037 221.179 181.917 218.707C181.917 217.127 181.759 215.62 181.201 214.128C180.667 212.699 179.852 211.391 178.804 210.281C175.937 207.693 172.071 206.345 168.216 206.586H152.812V243.001H160.803V213.818H167.541C170.914 213.818 173.82 215.458 173.82 219.124C173.82 222.191 171.587 224.274 167.695 224.274H163.763V231.35H165.886L173.669 243.001H183.01L174.132 229.993Z" fill="black"/>
<path d="M234 93.9596C233.57 100.985 232.293 107.934 230.197 114.655C197.815 112.725 167.449 98.3415 145.5 74.5354C123.556 98.3393 93.1961 112.724 60.8188 114.659C58.7257 107.936 57.4437 100.989 57 93.9635C67.9378 93.5791 78.7467 91.4817 89.0302 87.7482C80.0302 80.2973 69.6792 74.6367 58.5385 71.0738C59.9141 64.2302 62.1025 57.5743 65.0576 51.2467C81.6428 56.578 96.7592 65.6751 109.215 77.821C116.678 73.09 123.511 67.4389 129.554 61.0018C109.342 57.4878 90.8796 47.3673 77.0792 32.237C81.5261 26.8426 86.6027 21.996 92.2014 17.7999C100.238 26.7351 110.405 33.5072 121.763 37.4901C117.596 27.431 114.775 16.8696 113.372 6.07729C119.958 3.53246 126.825 1.77822 133.828 0.851599C135.229 14.13 139.192 27.0134 145.5 38.7926C151.813 27.0054 155.778 14.1124 157.176 0.824219C164.181 1.74369 171.049 3.50085 177.632 6.05773C176.227 16.8533 173.405 27.4184 169.241 37.4823C180.589 33.4979 190.749 26.7336 198.787 17.8116C204.39 21.9979 209.474 26.8324 213.933 32.2136C200.128 47.3493 181.66 57.4739 161.442 60.9901C167.488 67.4261 174.324 73.0771 181.789 77.8093C194.245 65.6633 209.361 56.5663 225.946 51.2349C228.885 57.5685 231.065 64.2246 232.442 71.0659C221.311 74.6309 210.97 80.29 201.978 87.7365C212.258 91.4713 223.065 93.5714 234 93.9596ZM155.956 176.202V146.545L186.019 107.485C179.542 104.644 173.31 101.278 167.385 97.4212L145.492 125.869L123.6 97.4212C117.675 101.279 111.443 104.646 104.965 107.485L135.025 146.545V176.217C141.977 177.032 149.001 177.026 155.952 176.202H155.956Z" fill="#FA6432"/>
</svg>
